<svg xmlns="http://www.w3.org/2000/svg" width="730" height="220" class="site-title"><path d="M57 91V79h57v12z"/><path d="M171 91V79h57v12z"/><path d="M343 91V79h57v12z"/><path d="m524 73 26-68h12l-26 68z"/><path d="M571 91V79h57v12z"/><path d="M628 91V79h58v12z"/><path d="m9 193 27-69h11l-26 69z"/><path d="m124 193 26-69h12l-26 69z"/><path d="m238 193 26-69h12l-26 69z"/><path d="m295 193 26-69h12l-26 69z"/><path d="M343 210v-11h57v11z"/><path d="M423 215v-95h11v95z"/><path d="m467 193 26-69h12l-26 69z"/><path d="m562 193-26-69h-12l26 69z"/><path d="m581 193 26-69h12l-26 69z"/><path d="M628 210v-11h58v11z"/><path d="m709 149-2-24h14l-2 24z"/></svg>