<svg
   width="730"
   height="220"
   viewBox="0 0 730 220"
   version="1.1"
   class="site-title"
   xmlns="http://www.w3.org/2000/svg">
  
  <g transform="translate(-39.737725,-132.23523)">
    <g fill="#000000" transform="matrix(0.26458333,0,0,0.26458333,-262.81353,-199.59993)">
      <path
         d="m 1358.7013,1597.0657 v -43.2 h 216 v 43.2 z" />
      <path
         d="m 1790.7016,1597.0657 v -43.2 h 216 v 43.2 z" />
      <path
         d="m 2438.702,1597.0657 v -43.2 h 216 v 43.2 z" />
      <path
         d="m 3122.7024,1531.1857 99,-259.92 h 45 l -98.64,259.92 z" />
      <path
         d="m 3302.7026,1597.0657 v -43.2 h 216 v 43.2 z" />
      <path
         d="m 3518.7026,1597.0657 v -43.2 h 216 v 43.2 z" />
      <path
         d="m 1178.7012,1983.6307 99,-259.92 h 45 l -98.64,259.92 z" />
      <path
         d="m 1610.7014,1983.6307 99,-259.92 h 45 l -98.64,259.92 z" />
      <path
         d="m 2042.7017,1983.6307 99,-259.92 h 45 l -98.64,259.92 z" />
      <path
         d="m 2258.7019,1983.6307 99,-259.92 h 45 l -98.64,259.92 z" />
      <path
         d="m 2438.702,2049.5107 v -43.2 h 216 v 43.2 z" />
      <path
         d="m 2742.5421,2068.5907 v -360 h 39.96 v 360 z" />
      <path
         d="m 2906.7023,1983.6307 99,-259.92 h 45 l -98.64,259.92 z" />
      <path
         d="m 3266.7024,1983.6307 -99,-259.92 h -45 l 98.64,259.92 z" />
      <path
         d="m 3338.7026,1983.6307 99,-259.92 h 45 l -98.64,259.92 z" />
      <path
         d="m 3518.7026,2049.5107 v -43.2 h 216 v 43.2 z" />
      <path
         d="m 3824.3429,1818.0307 -6.84,-92.88 h 50.04 l -6.84,92.88 z" />
    </g>
  </g>
</svg>