<svg xmlns="http://www.w3.org/2000/svg" version="1.1" xmlns:xlink="http://www.w3.org/1999/xlink" xmlns:svgjs="http://svgjs.com/svgjs" width="100mm" height="100mm"><svg id="SvgjsSvg1018" version="1.1" viewBox="0 0 100 100" height="100mm" width="100mm" xmlns="http://www.w3.org/2000/svg" xmlns:svg="http://www.w3.org/2000/svg">
  <defs id="SvgjsDefs1017">
    <rect x="-688.66212" y="-35.337919" width="500.11083" height="112.05457" id="SvgjsRect1016"></rect>
    <rect x="834.43754" y="71.505055" width="166.17463" height="374.77299" id="SvgjsRect1015"></rect>
  </defs>
  <g id="SvgjsG1014" style="display:none">
    <g id="SvgjsG1013" transform="matrix(1.8524205,0,0,1.8524205,-155.91882,-39.748112)" style="display:inline">
      <g id="SvgjsG1012">
        <path style="color:#000000;fill:#000000;stroke-width:6.77191;-inkscape-stroke:none" d="m 109.17428,28.248057 c -7.69553,0.221061 -15.084554,5.22466 -17.925245,12.418353 -2.455315,5.847652 -1.967642,12.864087 1.435013,18.23985 1.934622,3.106455 4.673629,5.720767 8.000942,7.432298 4.55124,2.31379 10.11136,2.81805 14.9777,1.33238 5.70165,-1.61969 10.51059,-6.123629 12.77722,-11.542022 3.28831,-7.576738 1.16183,-17.067303 -4.97388,-22.574541 -3.34815,-3.046091 -7.77064,-4.963533 -12.22763,-5.272341 -0.68672,-0.05076 -1.37603,-0.06042 -2.06412,-0.03398 z m 0.75781,3.611328 c 8.08304,-0.09865 15.65567,6.652598 16.32651,14.736208 0.85937,7.238752 -3.65777,14.842454 -10.59603,17.251904 -6.30047,2.410301 -14.05489,0.534879 -18.363287,-4.714675 -4.20099,-4.835929 -5.255987,-12.226615 -2.316096,-17.96121 2.586128,-5.400032 8.292913,-9.210356 14.314453,-9.287025 0.21123,-0.0076 0.42388,-0.01914 0.63445,-0.0252 z" id="SvgjsPath1011"></path>
        <path style="color:#000000;fill:#000000;-inkscape-stroke:none" d="m 109.05469,24.865234 c -9.07591,0.269422 -17.546504,5.985577 -20.935549,14.515625 -2.877401,6.875336 -2.326949,14.951287 1.695312,21.31836 2.241938,3.598137 5.421598,6.643933 9.322266,8.65039 l 0.0059,0.0039 0.0078,0.0039 c 5.355261,2.722544 11.711141,3.304758 17.460941,1.560547 6.7894,-1.937436 12.27685,-7.105995 14.94336,-13.464844 3.89464,-9.001737 1.45576,-19.867144 -5.81055,-26.402344 l -0.004,-0.002 c -3.91844,-3.563633 -8.99192,-5.774429 -14.25195,-6.142578 -0.001,-9.7e-5 -0.003,9.7e-5 -0.004,0 -0.81674,-0.06021 -1.62772,-0.07149 -2.42969,-0.04102 z m 0.92773,10.38086 c 6.16902,-0.06925 12.39262,5.486705 12.90235,11.628906 l 0.004,0.06055 0.008,0.05859 c 0.6629,5.583757 -3.06067,11.819643 -8.34375,13.654296 l -0.0508,0.01758 -0.0488,0.01953 c -4.88709,1.869596 -11.24182,0.313976 -14.537114,-3.701172 l -0.0293,-0.03711 -0.03125,-0.03516 c -3.26495,-3.758415 -4.110455,-9.804323 -1.859375,-14.195312 l 0.02148,-0.04102 0.01953,-0.04102 c 2.015979,-4.209522 6.681999,-7.306401 11.302729,-7.365235 h 0.041 l 0.0391,-0.002 c 0.23327,-0.0084 0.41429,-0.01655 0.5625,-0.02148 z m -18.011717,4.380859 c -0.0064,0.01254 -0.0073,0.02651 -0.01367,0.03906 -0.0075,0.01545 -0.01993,0.02749 -0.02734,0.04297 z m 37.650387,6.570313 0.0117,0.11914 c -0.001,-0.0181 -0.008,-0.03465 -0.01,-0.05273 -0.003,-0.02219 6.8e-4,-0.04421 -0.002,-0.06641 z M 94.681641,61.28125 c 0.01301,0.01585 0.02992,0.02717 0.04297,0.04297 0.0075,0.0087 0.01001,0.02059 0.01758,0.0293 z m 22.191409,5.728516 -0.0996,0.03711 c 0.0232,-0.0081 0.0433,-0.02116 0.0664,-0.0293 0.0108,-0.0041 0.0224,-0.0037 0.0332,-0.0078 z" id="SvgjsPath1010"></path>
      </g>
      <g id="SvgjsG1009">
        <path style="color:#000000;fill:#000000;stroke-width:6.77191;-inkscape-stroke:none" d="m 127.60592,68.046888 c 1.50196,0 3.00391,0 4.50586,0 0,-12.981123 0,-25.962243 0,-38.943362 -1.50195,0 -3.0039,0 -4.50586,0 0,12.981119 0,25.962239 0,38.943362 z" id="SvgjsPath1008"></path>
        <path style="color:#000000;fill:#000000;-inkscape-stroke:none" d="m 124.2207,25.716797 v 45.716797 h 3.38477 7.89258 V 25.716797 Z" id="SvgjsPath1007"></path>
      </g>
    </g>
  </g>
  <g id="SvgjsG1006" style="display:inline">
    <g id="SvgjsG1005" style="display:inline" transform="matrix(1.6577933,0,0,1.6577933,-18.598653,-30.351545)">
      <g id="SvgjsG1004">
        <path id="SvgjsPath1003" style="fill:#ffffff;stroke:#000000;stroke-width:2.97428;stroke-miterlimit:4;stroke-dasharray:none;stop-color:#000000" d="M 39.984886,23.919223 A 24.459955,24.459955 0 0 0 15.524973,48.379136 24.459955,24.459955 0 0 0 39.984886,72.839421 24.459955,24.459955 0 0 0 64.445171,48.379136 24.459955,24.459955 0 0 0 39.984886,23.919223 Z m 0,12.230141 A 12.229978,12.229978 0 0 1 52.215028,48.379136 12.229978,12.229978 0 0 1 39.984886,60.609279 12.229978,12.229978 0 0 1 27.755113,48.379136 12.229978,12.229978 0 0 1 39.984886,36.149364 Z"></path>
        <path id="SvgjsPath1002" style="display:inline;fill:#000000;stroke:none;stroke-width:0.855254;-inkscape-stroke:none;stop-color:#000000" d="m 39.324219,28.248047 c -7.695534,0.221061 -15.084557,5.22466 -17.925248,12.418353 -2.455315,5.847652 -1.967642,12.864087 1.435013,18.23985 1.934622,3.106455 4.673629,5.720767 8.000942,7.432302 4.55124,2.313783 10.111357,2.818045 14.977697,1.332375 5.701656,-1.619687 10.510595,-6.123628 12.777221,-11.542021 3.288312,-7.576738 1.161835,-17.067303 -4.973874,-22.574541 -3.348148,-3.046091 -7.770644,-4.963533 -12.227629,-5.272341 -0.68672,-0.05076 -1.37603,-0.06042 -2.064122,-0.03398 z m 0.757812,3.611328 c 8.08304,-0.09865 15.655668,6.652598 16.326504,14.736208 0.859371,7.238752 -3.65777,14.842454 -10.596029,17.251904 -6.300474,2.4103 -14.054893,0.534879 -18.363287,-4.714675 -4.20099,-4.835929 -5.255987,-12.226615 -2.316096,-17.96121 2.586128,-5.400032 8.292912,-9.210356 14.314449,-9.287025 0.211235,-0.0076 0.423884,-0.01914 0.634459,-0.0252 z"></path>
        <rect style="fill:#ffffff;stroke:#000000;stroke-width:2.97428;stroke-miterlimit:4;stroke-dasharray:none;stop-color:#000000" id="SvgjsRect1001" width="14.514425" height="48.952099" x="52.752144" y="24.099182"></rect>
        <path id="SvgjsPath1000" style="display:inline;fill:#000000;stroke:none;stroke-width:0.78217;-inkscape-stroke:none;stop-color:#000000" d="m 57.755859,68.046875 c 1.501954,0 3.003907,0 4.50586,0 0,-12.98112 0,-25.96224 0,-38.943359 -1.501953,0 -3.003907,0 -4.50586,0 0,12.981119 0,25.962239 0,38.943359 z"></path>
      </g>
    </g>
  </g>
</svg><style>@media (prefers-color-scheme: light) { :root { filter: none; } }
</style></svg>