<?xml version="1.0" encoding="UTF-8"?>
<!-- Created with Inkscape (http://www.inkscape.org/) -->
<svg width="55mm" height="55mm" version="1.1" viewBox="0 0 55 55" xmlns="http://www.w3.org/2000/svg">
 <path transform="scale(.26458)" d="m175.28 11.332-20.455 20.488a88.439 88.439 0 0 0-37.225-15.246 60.084 60.084 0 0 1 17.742 34.76l-31.512 31.564-71.605-70.379-20.934 21.305 84.264 82.814a60.084 60.084 0 0 1-19.607 3.3184 60.084 60.084 0 0 1-56.887-40.865 88.439 88.439 0 0 0-3.5664 24.846 88.439 88.439 0 0 0 36.83 71.75v-35.582h132.25a88.439 88.439 0 0 0 7.7969-36.168 88.439 88.439 0 0 0-16.436-50.988l20.484-20.521-21.141-21.096zm9.2949 128.77a88.439 88.439 0 0 1-29.424 35.871h43.045v-35.871h-13.621zm-29.424 35.871h-102.44a88.439 88.439 0 0 0 51.219 16.398 88.439 88.439 0 0 0 51.217-16.398zm-102.44 0a88.439 88.439 0 0 1-0.39062-0.28906v0.28906h0.39062z" fill="#364e59" opacity=".813"/>
</svg>
