<svg xmlns="http://www.w3.org/2000/svg" version="1.1" xmlns:xlink="http://www.w3.org/1999/xlink" xmlns:svgjs="http://svgjs.com/svgjs" width="55mm" height="55mm"><svg width="55mm" height="55mm" viewBox="0 0 55 55" version="1.1" id="SvgjsSvg1007" inkscape:version="1.1 (c4e8f9ed74, 2021-05-24)" sodipodi:docname="favicon.svg" xmlns:inkscape="http://www.inkscape.org/namespaces/inkscape" xmlns:sodipodi="http://sodipodi.sourceforge.net/DTD/sodipodi-0.dtd" xmlns="http://www.w3.org/2000/svg" xmlns:svg="http://www.w3.org/2000/svg">
  <sodipodi:namedview id="SvgjsSodipodi:namedview1006" pagecolor="#ffffff" bordercolor="#666666" borderopacity="1.0" inkscape:pageshadow="2" inkscape:pageopacity="0.0" inkscape:pagecheckerboard="0" inkscape:document-units="mm" showgrid="false" showguides="true" inkscape:guide-bbox="true" inkscape:snap-grids="false" inkscape:snap-object-midpoints="true" inkscape:zoom="2.4661837" inkscape:cx="117.79333" inkscape:cy="114.54945" inkscape:current-layer="layer1"></sodipodi:namedview>
  <defs id="SvgjsDefs1005">
    <rect x="-68.143992" y="169.31917" width="133.53845" height="93.929675" id="SvgjsRect1004"></rect>
  </defs>
  <g inkscape:label="Calque 1" inkscape:groupmode="layer" id="SvgjsG1003">
    <path id="SvgjsPath1002" style="opacity:0.813;fill:#0084c8;stroke:none;stroke-width:0.922866" d="M 117.60352 16.574219 A 60.083973 60.083973 0 0 1 136.03516 59.873047 A 60.083973 60.083973 0 0 1 75.951172 119.95703 A 60.083973 60.083973 0 0 1 19.064453 79.091797 A 88.438636 88.438636 0 0 0 15.498047 103.9375 A 88.438636 88.438636 0 0 0 52.328125 175.6875 L 52.328125 140.10547 L 184.57812 140.10547 A 88.438636 88.438636 0 0 0 192.375 103.9375 A 88.438636 88.438636 0 0 0 117.60352 16.574219 z M 184.57812 140.10547 A 88.438636 88.438636 0 0 1 155.1543 175.97656 L 198.19922 175.97656 L 198.19922 140.10547 L 184.57812 140.10547 z M 155.1543 175.97656 L 52.71875 175.97656 A 88.438636 88.438636 0 0 0 103.9375 192.375 A 88.438636 88.438636 0 0 0 155.1543 175.97656 z M 52.71875 175.97656 A 88.438636 88.438636 0 0 1 52.328125 175.6875 L 52.328125 175.97656 L 52.71875 175.97656 z " transform="scale(0.26458333)"></path>
    <g aria-label="EMG" transform="matrix(1.3009138,0,0,1.3009138,-104.62055,-240.22346)" id="SvgjsG1001" style="font-size:40px;line-height:1.25;letter-spacing:0px;word-spacing:0px;white-space:pre;shape-inside:url(#rect3393)"></g>
    <path style="color:#000000;fill:#ff4141;-inkscape-stroke:none" d="M 46.376953,2.9980469 27.472656,21.933594 8.5273438,3.3125 2.9882813,8.9492188 27.527344,33.066406 51.970703,8.5800781 Z" id="SvgjsPath1000" inkscape:export-filename="/home/nlebrun/Bureau/favicon.png" inkscape:export-xdpi="236.45091" inkscape:export-ydpi="236.45091"></path>
  </g>
</svg><style>@media (prefers-color-scheme: light) { :root { filter: none; } }
</style></svg>