<?xml version="1.0" encoding="UTF-8" standalone="no"?>
<svg
   version="1.1"
   width="100mm"
   height="100mm"
   id="svg23"
   xmlns="http://www.w3.org/2000/svg"
   xmlns:svg="http://www.w3.org/2000/svg">
  <defs
     id="defs27" />
  <path
     id="rect1140"
     style="fill:#ffffff;stroke-width:37.7953;stop-color:#000000"
     d="M 170.31641 24.623047 C 168.99072 24.638047 167.66629 24.670693 166.34766 24.720703 C 106.62954 26.494196 50.893185 64.105905 28.59375 120.23242 C 9.6606669 165.47161 13.283823 218.61099 39.75 260.50586 C 54.501785 284.18134 75.423317 304.22346 101.08984 317.42578 L 101.12891 317.45117 L 101.17969 317.47656 C 136.41691 335.39069 178.23902 339.22092 216.07227 327.74414 C 234.45706 322.49782 251.3541 313.60561 266.14062 302.09375 L 266.14062 331.13672 L 288.41211 331.13672 L 340.34375 331.13672 L 340.34375 30.324219 L 266.14062 30.324219 L 266.14062 57.050781 C 242.00202 38.517171 212.65254 27.112267 182.36133 24.992188 C 182.35473 24.99155 182.34294 24.992826 182.33594 24.992188 C 178.30538 24.695102 174.29532 24.577647 170.31641 24.623047 z M 172.45312 93.027344 L 172.45508 93.027344 C 213.04616 92.572809 253.99593 129.12809 257.34961 169.54297 L 257.37695 169.94141 L 257.42969 170.32812 C 261.79152 207.06883 237.28961 248.1 202.52734 260.17188 L 202.19336 260.28711 L 201.87109 260.41602 C 169.7144 272.71783 127.90154 262.48383 106.21875 236.06445 L 106.02734 235.82031 L 105.82031 235.58789 C 84.337186 210.8578 78.775953 171.07598 93.587891 142.18359 L 93.728516 141.91406 L 93.857422 141.64258 C 107.12242 113.94424 137.82249 93.568738 168.22656 93.181641 L 168.49805 93.181641 L 168.75391 93.167969 C 170.28805 93.112762 171.47817 93.059584 172.45312 93.027344 z M 53.939453 121.85352 C 53.897353 121.93597 53.891519 122.02678 53.849609 122.10938 C 53.800259 122.21103 53.716729 122.29072 53.667969 122.39258 L 53.939453 121.85352 z M 71.775391 264.33594 C 71.860995 264.44023 71.972724 264.51518 72.058594 264.61914 C 72.107943 264.67639 72.123818 264.7553 72.173828 264.8125 L 71.775391 264.33594 z M 217.79297 302.0293 L 217.13867 302.27344 C 217.29132 302.22015 217.42417 302.13338 217.57617 302.08008 C 217.64723 302.05318 217.72187 302.0563 217.79297 302.0293 z " />
  <path
     id="rect1638-3"
     style="display:inline;fill:#000000;stroke:none;stroke-width:35.5207;stop-color:#000000"
     d="M 0,0 V 377.14246 H 377.14062 V 0 Z m 170.31636,24.622502 c 3.97891,-0.0454 7.98883,0.07185 12.01939,0.368936 0.007,6.39e-4 0.0191,-6.38e-4 0.0257,0 30.29121,2.120079 59.64106,13.526675 83.77966,32.060285 V 30.323803 H 340.3445 V 331.13723 h -51.93235 -22.27112 v -29.04258 c -14.78653,11.51186 -31.6844,20.40411 -50.06919,25.65043 -37.83325,11.47678 -79.65556,7.64588 -114.89278,-10.26825 l -0.0494,-0.0257 -0.0401,-0.0257 C 75.423033,304.22311 54.501324,284.18135 39.749539,260.50587 13.283362,218.611 9.6616209,165.47169 28.594704,120.2325 50.894139,64.105983 106.6297,26.495122 166.34782,24.721629 c 1.31863,-0.05001 2.64285,-0.08409 3.96854,-0.09909 z m 2.13662,68.404819 c -0.97495,0.03224 -2.16456,0.08613 -3.6987,0.141337 l -0.25701,0.01316 h -0.26984 c -30.40407,0.387097 -61.10547,20.762872 -74.370466,48.461212 l -0.128506,0.27169 -0.141337,0.26984 c -14.811938,28.89239 -9.248967,68.67353 12.234159,93.40362 l 0.20556,0.23129 0.19272,0.24411 c 21.68279,26.41938 63.49551,36.65448 95.6522,24.35267 l 0.32123,-0.12851 0.33407,-0.11567 c 34.76227,-12.07188 59.2641,-53.10372 54.90227,-89.84443 l -0.0533,-0.38545 -0.0257,-0.39835 C 253.99665,129.12896 213.04598,92.572786 172.4549,93.027321 Z M 53.938592,121.85332 53.668762,122.393 c 0.04876,-0.10186 0.130539,-0.18101 0.179889,-0.28267 0.04191,-0.0826 0.04784,-0.1745 0.08994,-0.25695 z m 17.836353,142.48341 0.398348,0.4754 c -0.05001,-0.0572 -0.06626,-0.13548 -0.115609,-0.19273 -0.08587,-0.10396 -0.197069,-0.17838 -0.282673,-0.28267 z M 217.7937,302.02858 c -0.0711,0.027 -0.14739,0.0244 -0.21845,0.0513 -0.152,0.0533 -0.28419,0.13943 -0.43684,0.19272 z" />
  <style
     id="style21">@media (prefers-color-scheme: light) { :root { filter: none; } }
</style>
</svg>
