<?xml version="1.0" encoding="UTF-8" standalone="no"?>
<svg
   xmlns:dc="http://purl.org/dc/elements/1.1/"
   xmlns:cc="http://creativecommons.org/ns#"
   xmlns:rdf="http://www.w3.org/1999/02/22-rdf-syntax-ns#"
   xmlns:svg="http://www.w3.org/2000/svg"
   xmlns="http://www.w3.org/2000/svg"
   version="1.1"
   width="100mm"
   height="100mm"
   id="svg23">
  <metadata
     id="metadata9">
    <rdf:RDF>
      <cc:Work
         rdf:about="">
        <dc:format>image/svg+xml</dc:format>
        <dc:type
           rdf:resource="http://purl.org/dc/dcmitype/StillImage" />
        <dc:title></dc:title>
      </cc:Work>
    </rdf:RDF>
  </metadata>
  <defs
     id="defs27" />
  <path
     id="rect1140"
     style="fill:#ffffff;stroke:#000000;stroke-width:18;stroke-miterlimit:4;stroke-dasharray:none;stop-color:#000000"
     d="m 180.31641,32.623047 c -1.32569,0.015 -2.65012,0.04765 -3.96875,0.09766 C 116.62954,34.494196 60.893185,72.105905 38.59375,128.23242 19.660667,173.47161 23.283823,226.61099 49.75,268.50586 c 14.751785,23.67548 35.673317,43.7176 61.33984,56.91992 l 0.0391,0.0254 0.0508,0.0254 c 35.23722,17.91413 77.05933,21.74436 114.89258,10.26758 18.38479,-5.24632 35.28183,-14.13853 50.06835,-25.65039 v 29.04297 h 22.27149 51.93164 V 38.324219 h -74.20313 v 26.726562 c -24.1386,-18.53361 -53.48808,-29.938514 -83.77929,-32.058593 -0.007,-6.38e-4 -0.0184,6.38e-4 -0.0254,0 -4.03056,-0.297086 -8.04062,-0.414541 -12.01953,-0.369141 z m 2.13671,68.404293 h 0.002 c 40.59108,-0.45453 81.54085,36.10075 84.89453,76.51563 l 0.0273,0.39844 0.0527,0.38671 c 4.36183,36.74071 -20.14008,77.77188 -54.90235,89.84376 l -0.33398,0.11523 -0.32227,0.12891 c -32.15669,12.30181 -73.96955,2.06781 -95.65234,-24.35157 l -0.19141,-0.24414 -0.20703,-0.23242 C 94.33719,218.8578 88.775953,179.07598 103.58789,150.18359 l 0.14063,-0.26953 0.1289,-0.27148 c 13.265,-27.69834 43.96507,-48.07384 74.36914,-48.46094 h 0.27149 l 0.25586,-0.0137 c 1.53414,-0.0552 2.72426,-0.10838 3.69921,-0.14062 z M 63.939453,129.85352 c -0.0421,0.0824 -0.04793,0.17326 -0.08984,0.25586 -0.04935,0.10165 -0.13288,0.18134 -0.18164,0.2832 z m 17.835938,142.48242 c 0.0856,0.10429 0.197333,0.17924 0.283203,0.2832 0.04935,0.0573 0.06522,0.13616 0.115234,0.19336 z m 146.017579,37.69336 -0.6543,0.24414 c 0.15265,-0.0533 0.2855,-0.14006 0.4375,-0.19336 0.0711,-0.0269 0.1457,-0.0238 0.2168,-0.0508 z" />
  <style
     id="style21">@media (prefers-color-scheme: light) { :root { filter: none; } }
</style>
</svg>
