<?xml version="1.0" encoding="utf-8"?>
<!-- Generator: Adobe Illustrator 22.0.1, SVG Export Plug-In . SVG Version: 6.00 Build 0)  -->
<svg version="1.1" id="SvgjsSvg1006" xmlns:svgjs="http://svgjs.com/svgjs"
	 xmlns="http://www.w3.org/2000/svg" xmlns:xlink="http://www.w3.org/1999/xlink" x="0px" y="0px" viewBox="0 0 2588 1299.7"
	 style="enable-background:new 0 0 2588 1299.7;" xml:space="preserve">
<style type="text/css">
	.st0{fill:#FFF8FA;}
	.st1{fill:#999999;}
	.st2{fill:#F60201;}
	.st3{fill:#FDED01;}
	.st4{fill:#1F7FC9;}
</style>
<rect id="SvgjsRect1008" y="-13.1" class="st0" width="2600" height="1334.1"/>
<g>
	<polyline id="SvgjsPolyline1009" class="st1" points="591.9,250.8 595.4,247.3 1241.7,893.6 1238.2,897.1 	"/>
	<polyline id="SvgjsPolyline1010" class="st1" points="949.6,1469.3 1595.9,823 1598,825.1 951.7,1471.4 	"/>
	<polyline id="SvgjsPolyline1011" class="st1" points="959.5,126 960.9,124.6 1607.2,770.9 1605.8,772.3 	"/>
	<polyline id="SvgjsPolyline1012" class="st1" points="1054.3,500 1055.7,498.6 1702,1144.9 1700.6,1146.3 	"/>
	<polyline id="SvgjsPolyline1013" class="st1" points="1021.5,474.5 1667.8,-171.8 1669.2,-170.3 1023,475.9 	"/>
	<polyline id="SvgjsPolyline1014" class="st1" points="932.6,876 1578.9,229.7 1580.3,231.1 934,877.4 	"/>
	<polyline id="SvgjsPolyline1015" class="st1" points="887.5,334 890.3,331.2 1536.6,977.5 1533.8,980.3 	"/>
	<polyline id="SvgjsPolyline1016" class="st1" points="830.8,530.8 832.9,528.6 1479.2,1174.9 1477.1,1177.1 	"/>
	<polyline id="SvgjsPolyline1017" class="st1" points="1482.3,383.2 1485.8,379.7 2132.1,1026 2128.6,1029.5 	"/>
	<polyline id="SvgjsPolyline1018" class="st1" points="1000.1,864.6 1646.4,218.3 1649.9,221.8 1003.6,868.1 	"/>
	<polyline id="SvgjsPolyline1019" class="st1" points="1038.5,739 1684.8,92.7 1686.9,94.8 1040.6,741.1 	"/>
	<polyline id="SvgjsPolyline1020" class="st1" points="1120.5,980.4 1766.8,334.1 1769.6,336.9 1123.3,983.2 	"/>
	<polyline id="SvgjsPolyline1021" class="st1" points="857.2,337.4 859.3,335.3 1505.6,981.6 1503.5,983.7 	"/>
	<polyline id="SvgjsPolyline1022" class="st1" points="749,353.5 750.4,352.1 1396.7,998.4 1395.3,999.8 	"/>
	<polyline id="SvgjsPolyline1023" class="st1" points="587,1180.9 1233.3,534.6 1236.9,538.1 590.6,1184.4 	"/>
	<polyline id="SvgjsPolyline1024" class="st1" points="833.3,-30.3 834.7,-31.7 1481,614.6 1479.6,616 	"/>
	<polyline id="SvgjsPolyline1025" class="st1" points="828.5,408 831.4,405.1 1477.7,1051.4 1474.8,1054.3 	"/>
	<polyline id="SvgjsPolyline1026" class="st1" points="945.4,-66.4 948.9,-69.9 1595.2,576.4 1591.7,579.9 	"/>
	<polyline id="SvgjsPolyline1027" class="st1" points="455.9,362.4 457.3,361 1103.6,1007.3 1102.2,1008.7 	"/>
	<polyline id="SvgjsPolyline1028" class="st1" points="619.2,430.1 620.6,428.7 1266.9,1075 1265.5,1076.4 	"/>
	<polyline id="SvgjsPolyline1029" class="st1" points="1083.8,964.8 1730.1,318.5 1732.9,321.3 1086.6,967.6 	"/>
	<polyline id="SvgjsPolyline1030" class="st1" points="1153.8,779 1800.1,132.7 1802.2,134.9 1155.9,781.1 	"/>
	<polyline id="SvgjsPolyline1031" class="st1" points="1473.1,935.1 2119.4,288.8 2120.8,290.3 1474.5,936.6 	"/>
	<polyline id="SvgjsPolyline1032" class="st1" points="1240.7,1126.7 1887,480.4 1889.8,483.2 1243.5,1129.5 	"/>
	<polyline id="SvgjsPolyline1033" class="st1" points="502.4,378.9 505.9,375.3 1152.2,1021.6 1148.7,1025.2 	"/>
	<polyline id="SvgjsPolyline1034" class="st1" points="1182.1,1235.2 1828.4,588.9 1830.5,591 1184.2,1237.3 	"/>
	<polyline id="SvgjsPolyline1035" class="st1" points="975.8,1190.1 1622.1,543.9 1623.5,545.3 977.2,1191.6 	"/>
	<polyline id="SvgjsPolyline1036" class="st1" points="559,944 1205.3,297.7 1206.7,299.2 560.4,945.5 	"/>
	<polyline id="SvgjsPolyline1037" class="st1" points="539.9,1004.4 1186.2,358.1 1188.3,360.2 542,1006.5 	"/>
	<polyline id="SvgjsPolyline1038" class="st1" points="935.3,899.3 1581.6,253 1585.1,256.6 938.8,902.9 	"/>
	<polyline id="SvgjsPolyline1039" class="st1" points="1044.6,38.2 1046,36.8 1692.3,683.1 1690.9,684.5 	"/>
	<polyline id="SvgjsPolyline1040" class="st1" points="1220.4,704.8 1866.7,58.6 1868.9,60.7 1222.6,707 	"/>
	<polyline id="SvgjsPolyline1041" class="st2" points="1683.8,768.4 1704.3,747.9 1741,784.6 1720.5,805.1 	"/>
	<polyline id="SvgjsPolyline1042" class="st2" points="1318.9,407.6 1327.3,399.1 1336.5,408.3 1328,416.8 	"/>
	<polyline id="SvgjsPolyline1043" class="st2" points="1705.5,724.8 1713.3,717 1736.6,740.4 1728.9,748.1 	"/>
	<polyline id="SvgjsPolyline1044" class="st2" points="1219.3,471.2 1222.2,468.3 1250.4,496.6 1247.6,499.5 	"/>
	<polyline id="SvgjsPolyline1045" class="st2" points="1250.9,136.6 1256.5,130.9 1266.4,140.8 1260.8,146.5 	"/>
	<polyline id="SvgjsPolyline1046" class="st2" points="1650.9,778.8 1674.9,754.7 1684.1,763.9 1660.1,788 	"/>
	<polyline id="SvgjsPolyline1047" class="st2" points="1557.9,501 1574.1,484.7 1591.8,502.4 1575.5,518.7 	"/>
	<polyline id="SvgjsPolyline1048" class="st2" points="1237,456.7 1263.2,430.5 1283.7,451 1257.5,477.2 	"/>
	<polyline id="SvgjsPolyline1049" class="st2" points="1262.3,1200.2 1292,1170.5 1299.8,1178.3 1270.1,1208 	"/>
	<polyline id="SvgjsPolyline1050" class="st2" points="1240.4,272.9 1256.7,256.6 1265.2,265.1 1248.9,281.3 	"/>
	<polyline id="SvgjsPolyline1051" class="st2" points="1674,597.8 1683.9,587.9 1705.8,609.8 1695.9,619.7 	"/>
	<polyline id="SvgjsPolyline1052" class="st2" points="1143.6,581.2 1154.3,570.6 1174.8,591.1 1164.2,601.7 	"/>
	<polyline id="SvgjsPolyline1053" class="st2" points="1199.2,1067.2 1212.7,1053.7 1215.5,1056.6 1202.1,1070 	"/>
	<polyline id="SvgjsPolyline1054" class="st2" points="1734.1,758.7 1747.6,745.3 1761,758.7 1747.6,772.2 	"/>
	<polyline id="SvgjsPolyline1055" class="st2" points="1162.3,233.4 1188.4,207.2 1200.5,219.2 1174.3,245.4 	"/>
	<polyline id="SvgjsPolyline1056" class="st2" points="1065.8,871.1 1082.1,854.9 1090.5,863.3 1074.3,879.6 	"/>
	<polyline id="SvgjsPolyline1057" class="st2" points="1462.6,502.4 1476,488.9 1487.3,500.2 1473.9,513.7 	"/>
	<polyline id="SvgjsPolyline1058" class="st2" points="1241.7,345.8 1285.6,301.9 1306.8,323.1 1262.9,367 	"/>
	<polyline id="SvgjsPolyline1059" class="st2" points="1576.3,861 1587.6,849.7 1601,863.1 1589.7,874.4 	"/>
	<polyline id="SvgjsPolyline1060" class="st2" points="1113.6,1062.1 1134.8,1040.9 1159.5,1065.6 1138.3,1086.9 	"/>
	<polyline id="SvgjsPolyline1061" class="st2" points="1710.7,598.7 1734.8,574.6 1743.3,583.1 1719.2,607.2 	"/>
	<polyline id="SvgjsPolyline1062" class="st2" points="835.7,567.5 845.6,557.6 877.4,589.4 867.5,599.3 	"/>
	<polyline id="SvgjsPolyline1063" class="st2" points="1054.6,455.2 1086.4,423.4 1089.9,426.9 1058.1,458.8 	"/>
	<polyline id="SvgjsPolyline1064" class="st2" points="1537.9,413.8 1552.1,399.7 1566.9,414.5 1552.8,428.7 	"/>
	<polyline id="SvgjsPolyline1065" class="st2" points="1331,642.6 1364.2,609.4 1369.2,614.3 1336,647.6 	"/>
	<polyline id="SvgjsPolyline1066" class="st2" points="1272,383.8 1306.6,349.1 1314.4,356.9 1279.8,391.6 	"/>
	<polyline id="SvgjsPolyline1067" class="st2" points="1473.8,1008.2 1494.3,987.7 1511.3,1004.6 1490.8,1025.1 	"/>
	<polyline id="SvgjsPolyline1068" class="st2" points="1020.5,358.1 1023.4,355.3 1057.3,389.2 1054.5,392 	"/>
	<polyline id="SvgjsPolyline1069" class="st2" points="1270.9,1073.6 1285,1059.5 1295.6,1070.1 1281.5,1084.2 	"/>
	<polyline id="SvgjsPolyline1070" class="st2" points="1565.6,761.8 1571.2,756.1 1590.3,775.2 1584.7,780.9 	"/>
	<polyline id="SvgjsPolyline1071" class="st2" points="949.5,501 962.3,488.3 975,501 962.3,513.7 	"/>
	<polyline id="SvgjsPolyline1072" class="st2" points="1628.6,650.2 1634.9,643.9 1652.6,661.6 1646.3,667.9 	"/>
	<polyline id="SvgjsPolyline1073" class="st2" points="1657.2,850.4 1664.3,843.4 1689.8,868.8 1682.7,875.9 	"/>
	<polyline id="SvgjsPolyline1074" class="st2" points="1226.5,527.4 1244.9,509 1253.4,517.5 1235,535.9 	"/>
	<polyline id="SvgjsPolyline1075" class="st2" points="1155.6,532.4 1168.3,519.7 1191,542.3 1178.2,555 	"/>
	<polyline id="SvgjsPolyline1076" class="st2" points="1655.1,808.1 1675.6,787.6 1683.4,795.3 1662.9,815.8 	"/>
	<polyline id="SvgjsPolyline1077" class="st2" points="1515.1,604.4 1526.4,593.1 1534.9,601.5 1523.6,612.9 	"/>
	<polyline id="SvgjsPolyline1078" class="st2" points="1453.9,530.9 1466.6,518.2 1491.4,542.9 1478.7,555.7 	"/>
	<polyline id="SvgjsPolyline1079" class="st2" points="1542.2,513.8 1554.9,501.1 1568.3,514.6 1555.6,527.3 	"/>
	<polyline id="SvgjsPolyline1080" class="st2" points="1203,750.1 1219.2,733.9 1229.9,744.5 1213.6,760.7 	"/>
	<polyline id="SvgjsPolyline1081" class="st2" points="1288.8,822.2 1303.6,807.3 1312.8,816.5 1298,831.4 	"/>
	<polyline id="SvgjsPolyline1082" class="st2" points="1278.1,703.8 1286.6,695.3 1292.3,701 1283.8,709.5 	"/>
	<polyline id="SvgjsPolyline1083" class="st2" points="1180,194.7 1189.9,184.8 1206.8,201.8 1196.9,211.7 	"/>
	<polyline id="SvgjsPolyline1084" class="st2" points="1253.4,183.3 1260.5,176.2 1289.5,205.2 1282.4,212.3 	"/>
	<polyline id="SvgjsPolyline1085" class="st2" points="1321.5,742.3 1361.8,702 1366.1,706.2 1325.8,746.5 	"/>
	<polyline id="SvgjsPolyline1086" class="st2" points="1434.6,998.5 1450.2,982.9 1458.7,991.4 1443.1,1007 	"/>
	<polyline id="SvgjsPolyline1087" class="st2" points="1058.1,589.9 1073.7,574.3 1085.7,586.4 1070.1,601.9 	"/>
	<polyline id="SvgjsPolyline1088" class="st2" points="1070.8,813.5 1090.6,793.7 1133,836.1 1113.2,855.9 	"/>
	<polyline id="SvgjsPolyline1089" class="st2" points="1080.1,806.6 1084.4,802.3 1123.2,841.2 1119,845.5 	"/>
	<polyline id="SvgjsPolyline1090" class="st2" points="1688.8,519.6 1707.8,500.5 1747.4,540.1 1728.4,559.2 	"/>
	<polyline id="SvgjsPolyline1091" class="st2" points="1166.4,1031.1 1187.6,1009.8 1218.7,1041 1197.5,1062.2 	"/>
	<polyline id="SvgjsPolyline1092" class="st2" points="1459.2,432.7 1490.4,401.6 1499.6,410.8 1468.4,441.9 	"/>
	<polyline id="SvgjsPolyline1093" class="st2" points="1003.9,574.4 1031.5,546.8 1036.5,551.7 1008.9,579.3 	"/>
	<polyline id="SvgjsPolyline1094" class="st2" points="1379.8,1117 1389.7,1107.1 1414.4,1131.9 1404.5,1141.8 	"/>
	<polyline id="SvgjsPolyline1095" class="st2" points="1233,740.2 1240,733.1 1269,762.1 1262,769.2 	"/>
	<polyline id="SvgjsPolyline1096" class="st2" points="1414.7,261 1420.3,255.4 1459.2,294.3 1453.6,299.9 	"/>
	<polyline id="SvgjsPolyline1097" class="st2" points="1208.8,367.5 1219.4,356.9 1230,367.5 1219.4,378.1 	"/>
	<polyline id="SvgjsPolyline1098" class="st2" points="1499.6,459 1510.2,448.4 1518.7,456.9 1508.1,467.5 	"/>
	<polyline id="SvgjsPolyline1099" class="st2" points="1551,884 1569.4,865.6 1591.3,887.5 1572.9,905.9 	"/>
	<polyline id="SvgjsPolyline1100" class="st2" points="809.5,664.9 822.2,652.2 825.1,655 812.3,667.7 	"/>
	<polyline id="SvgjsPolyline1101" class="st2" points="1363.9,1018.1 1385.8,996.2 1399.2,1009.6 1377.3,1031.6 	"/>
	<polyline id="SvgjsPolyline1102" class="st2" points="929,725.3 937.5,716.8 946,725.3 937.5,733.8 	"/>
	<polyline id="SvgjsPolyline1103" class="st2" points="1394.8,686.6 1418.1,663.3 1427.3,672.4 1404,695.8 	"/>
	<polyline id="SvgjsPolyline1104" class="st2" points="1117.6,985.5 1121.1,982 1137.4,998.2 1133.9,1001.8 	"/>
	<polyline id="SvgjsPolyline1105" class="st2" points="1625.1,605.5 1663.3,567.3 1683.1,587.1 1644.9,625.3 	"/>
	<polyline id="SvgjsPolyline1106" class="st2" points="1365.5,1145.4 1376.8,1134.1 1387.4,1144.7 1376.1,1156 	"/>
	<polyline id="SvgjsPolyline1107" class="st2" points="1529.3,457.5 1542,444.8 1568.2,470.9 1555.5,483.7 	"/>
	<polyline id="SvgjsPolyline1108" class="st2" points="920,681.4 929.2,672.2 936.2,679.3 927,688.5 	"/>
	<polyline id="SvgjsPolyline1109" class="st2" points="1666.6,820 1689.9,796.7 1701.3,808 1677.9,831.3 	"/>
	<polyline id="SvgjsPolyline1110" class="st2" points="1564.1,678.7 1569.1,673.8 1577.5,682.2 1572.6,687.2 	"/>
	<polyline id="SvgjsPolyline1111" class="st2" points="1513.1,802.5 1519.5,796.1 1533.6,810.3 1527.2,816.6 	"/>
	<polyline id="SvgjsPolyline1112" class="st2" points="954.9,638.1 959.2,633.8 982.5,657.2 978.3,661.4 	"/>
	<polyline id="SvgjsPolyline1113" class="st2" points="725.3,678.4 738.1,665.7 758.6,686.2 745.9,698.9 	"/>
	<polyline id="SvgjsPolyline1114" class="st2" points="1302.2,271.8 1322,252 1339,269 1319.2,288.7 	"/>
	<polyline id="SvgjsPolyline1115" class="st2" points="1444.2,808.6 1452.7,800.1 1483.1,830.5 1474.6,839 	"/>
	<polyline id="SvgjsPolyline1116" class="st2" points="1228.5,140.2 1248.3,120.4 1292.1,164.2 1272.3,184 	"/>
	<polyline id="SvgjsPolyline1117" class="st2" points="1459.7,386.2 1493.6,352.2 1500.7,359.3 1466.8,393.3 	"/>
	<polyline id="SvgjsPolyline1118" class="st2" points="742.3,709.5 770.6,681.2 776.9,687.5 748.7,715.8 	"/>
	<polyline id="SvgjsPolyline1119" class="st2" points="1063.4,340.5 1076.8,327 1119.9,370.2 1106.5,383.6 	"/>
	<polyline id="SvgjsPolyline1120" class="st2" points="1369.1,377.1 1374.1,372.1 1382.6,380.6 1377.6,385.6 	"/>
	<polyline id="SvgjsPolyline1121" class="st2" points="1338.7,378 1348.6,368.1 1372,391.5 1362.1,401.4 	"/>
	<polyline id="SvgjsPolyline1122" class="st2" points="1144.6,258.7 1155.2,248 1159.4,252.3 1148.8,262.9 	"/>
	<polyline id="SvgjsPolyline1123" class="st2" points="1330.2,752.6 1339.4,743.4 1345.8,749.8 1336.6,759 	"/>
	<polyline id="SvgjsPolyline1124" class="st2" points="1154.3,954.8 1160,949.2 1184,973.2 1178.4,978.9 	"/>
	<polyline id="SvgjsPolyline1125" class="st2" points="1266.2,950.9 1280.3,936.8 1283.9,940.3 1269.7,954.5 	"/>
	<polyline id="SvgjsPolyline1126" class="st2" points="1122.3,483.3 1164.8,440.9 1174,450.1 1131.5,492.5 	"/>
	<polyline id="SvgjsPolyline1127" class="st2" points="1462.6,796.1 1487.4,771.3 1493,777 1468.3,801.7 	"/>
	<polyline id="SvgjsPolyline1128" class="st2" points="1496.7,1028.9 1510.1,1015.5 1519.3,1024.7 1505.9,1038.1 	"/>
	<polyline id="SvgjsPolyline1129" class="st2" points="950.7,681.2 957.7,674.2 993.1,709.5 986,716.6 	"/>
	<polyline id="SvgjsPolyline1130" class="st2" points="1347.4,940.1 1352.4,935.1 1362.3,945 1357.3,950 	"/>
	<polyline id="SvgjsPolyline1131" class="st2" points="1071.6,498.2 1087.9,482 1103.5,497.5 1087.2,513.8 	"/>
	<polyline id="SvgjsPolyline1132" class="st2" points="1013,400.1 1016.5,396.6 1051.9,431.9 1048.4,435.4 	"/>
	<polyline id="SvgjsPolyline1133" class="st2" points="1078.8,915.9 1088,906.7 1104.9,923.7 1095.7,932.9 	"/>
	<polyline id="SvgjsPolyline1134" class="st2" points="1617.8,888 1633.4,872.4 1639.8,878.8 1624.2,894.3 	"/>
	<polyline id="SvgjsPolyline1135" class="st2" points="1597.7,477.5 1618.2,457 1621,459.8 1600.5,480.4 	"/>
	<polyline id="SvgjsPolyline1136" class="st2" points="1657.3,494.4 1677.1,474.6 1697.6,495.1 1677.8,514.9 	"/>
	<polyline id="SvgjsPolyline1137" class="st2" points="1595.6,582.6 1610.5,567.8 1636.6,593.9 1621.8,608.8 	"/>
	<polyline id="SvgjsPolyline1138" class="st2" points="974.8,408 980.4,402.3 1011.5,433.4 1005.9,439.1 	"/>
	<polyline id="SvgjsPolyline1139" class="st2" points="1375.8,706.3 1384.3,697.8 1387.1,700.7 1378.7,709.2 	"/>
	<polyline id="SvgjsPolyline1140" class="st2" points="1080,317.1 1082.9,314.2 1118.2,349.6 1115.4,352.4 	"/>
	<polyline id="SvgjsPolyline1141" class="st2" points="1374.2,896.1 1384.1,886.2 1401.1,903.2 1391.2,913.1 	"/>
	<polyline id="SvgjsPolyline1142" class="st2" points="1432.8,783.5 1451.9,764.4 1463.9,776.4 1444.8,795.5 	"/>
	<polyline id="SvgjsPolyline1143" class="st2" points="1139.5,370.1 1155.8,353.8 1169.2,367.2 1153,383.5 	"/>
	<polyline id="SvgjsPolyline1144" class="st2" points="1379.2,205.8 1401.1,183.9 1430.1,212.8 1408.2,234.8 	"/>
	<polyline id="SvgjsPolyline1145" class="st2" points="1194,533.2 1203.9,523.3 1211,530.4 1201.1,540.3 	"/>
	<polyline id="SvgjsPolyline1146" class="st2" points="1469.9,685.7 1490.5,665.2 1495.4,670.2 1474.9,690.7 	"/>
	<polyline id="SvgjsPolyline1147" class="st2" points="1131.5,653 1149.9,634.6 1157.7,642.4 1139.3,660.8 	"/>
	<polyline id="SvgjsPolyline1148" class="st2" points="979,514.1 998.8,494.3 1003,498.6 983.2,518.4 	"/>
	<polyline id="SvgjsPolyline1149" class="st2" points="1307.4,579.1 1340.6,545.9 1356.2,561.4 1322.9,594.6 	"/>
	<polyline id="SvgjsPolyline1150" class="st2" points="1502.6,344.5 1540.8,306.3 1544.3,309.9 1506.1,348.1 	"/>
	<polyline id="SvgjsPolyline1151" class="st2" points="1259.6,532.9 1268.8,523.7 1273.8,528.6 1264.6,537.8 	"/>
	<polyline id="SvgjsPolyline1152" class="st2" points="1103.1,959.3 1107.3,955.1 1118.6,966.4 1114.4,970.7 	"/>
	<polyline id="SvgjsPolyline1153" class="st2" points="1479.6,954.3 1483.9,950 1518.5,984.7 1514.3,988.9 	"/>
	<polyline id="SvgjsPolyline1154" class="st2" points="1564.8,923.2 1593,894.9 1613.6,915.4 1585.3,943.7 	"/>
	<polyline id="SvgjsPolyline1155" class="st2" points="1174,258.5 1193.1,239.4 1201.6,247.9 1182.5,267 	"/>
	<polyline id="SvgjsPolyline1156" class="st2" points="1404.7,378 1422.4,360.3 1432.3,370.2 1414.6,387.9 	"/>
	<polyline id="SvgjsPolyline1157" class="st2" points="1425,356.7 1443.4,338.3 1452.6,347.5 1434.2,365.9 	"/>
	<polyline id="SvgjsPolyline1158" class="st2" points="1482.6,519.7 1501.7,500.6 1511.6,510.5 1492.5,529.6 	"/>
	<polyline id="SvgjsPolyline1159" class="st2" points="994.3,784 1019.8,758.5 1030.4,769.1 1005,794.6 	"/>
	<polyline id="SvgjsPolyline1160" class="st2" points="750.3,653.9 756,648.2 775.1,667.3 769.4,673 	"/>
	<polyline id="SvgjsPolyline1161" class="st2" points="1276.9,926.9 1287.5,916.2 1297.4,926.1 1286.8,936.8 	"/>
	<polyline id="SvgjsPolyline1162" class="st2" points="1454,842.4 1463.9,832.5 1472.4,840.9 1462.5,850.8 	"/>
	<polyline id="SvgjsPolyline1163" class="st2" points="1195.8,1091.1 1215.6,1071.3 1218.5,1074.1 1198.7,1093.9 	"/>
	<polyline id="SvgjsPolyline1164" class="st2" points="1445.6,505 1476,474.6 1480.9,479.5 1450.5,509.9 	"/>
	<polyline id="SvgjsPolyline1165" class="st2" points="1095.4,483 1105.3,473.1 1116.6,484.5 1106.7,494.4 	"/>
	<polyline id="SvgjsPolyline1166" class="st2" points="1537.2,972.2 1552.1,957.3 1561.3,966.5 1546.4,981.3 	"/>
	<polyline id="SvgjsPolyline1167" class="st2" points="1680.8,528.5 1687.9,521.4 1713.4,546.9 1706.3,554 	"/>
	<polyline id="SvgjsPolyline1168" class="st2" points="949,755.8 966,738.9 987.9,760.8 970.9,777.8 	"/>
	<polyline id="SvgjsPolyline1169" class="st2" points="1331.5,173.4 1350.6,154.3 1359.8,163.5 1340.7,182.6 	"/>
	<polyline id="SvgjsPolyline1170" class="st2" points="864,827 883.8,807.2 912.8,836.2 893,856 	"/>
	<polyline id="SvgjsPolyline1171" class="st2" points="1324.3,1066 1334.2,1056.1 1342.7,1064.6 1332.8,1074.5 	"/>
	<polyline id="SvgjsPolyline1172" class="st2" points="1637.6,517.4 1658.9,496.2 1680.8,518.2 1659.6,539.4 	"/>
	<polyline id="SvgjsPolyline1173" class="st2" points="1042.8,837.7 1054.8,825.7 1074.6,845.5 1062.6,857.5 	"/>
	<polyline id="SvgjsPolyline1174" class="st2" points="1395.7,711.8 1425.4,682.1 1428.2,684.9 1398.5,714.6 	"/>
	<polyline id="SvgjsPolyline1175" class="st2" points="1199.5,589.6 1212.9,576.1 1217.9,581.1 1204.4,594.5 	"/>
	<polyline id="SvgjsPolyline1176" class="st2" points="1086.5,988.8 1096.4,978.9 1121.8,1004.4 1111.9,1014.3 	"/>
	<polyline id="SvgjsPolyline1177" class="st2" points="1120.1,754.1 1125.8,748.4 1139.2,761.8 1133.6,767.5 	"/>
	<polyline id="SvgjsPolyline1178" class="st2" points="1607.8,819.9 1647.4,780.3 1661.6,794.5 1622,834.1 	"/>
	<polyline id="SvgjsPolyline1179" class="st2" points="1329.4,1099.2 1341.5,1087.1 1358.4,1104.1 1346.4,1116.1 	"/>
	<polyline id="SvgjsPolyline1180" class="st2" points="1034.5,933.6 1044.4,923.7 1070.6,949.9 1060.7,959.8 	"/>
	<polyline id="SvgjsPolyline1181" class="st2" points="1257.7,184.7 1262,180.4 1282.5,200.9 1278.2,205.2 	"/>
	<polyline id="SvgjsPolyline1182" class="st2" points="884,780.5 889.6,774.9 928.5,813.8 922.9,819.4 	"/>
	<polyline id="SvgjsPolyline1183" class="st2" points="1115.2,315.8 1126.5,304.5 1132.8,310.9 1121.5,322.2 	"/>
	<polyline id="SvgjsPolyline1184" class="st2" points="1177.6,385.2 1180.4,382.3 1220,421.9 1217.2,424.7 	"/>
	<polyline id="SvgjsPolyline1185" class="st2" points="1422,327.4 1427.6,321.7 1439,333.1 1433.3,338.7 	"/>
	<polyline id="SvgjsPolyline1186" class="st2" points="1496.1,898.4 1526.5,868 1532.1,873.7 1501.7,904.1 	"/>
	<polyline id="SvgjsPolyline1187" class="st2" points="1416.6,755.3 1422.3,749.6 1430.8,758.1 1425.1,763.8 	"/>
	<polyline id="SvgjsPolyline1188" class="st2" points="857.6,649.2 884.5,622.4 888,625.9 861.2,652.8 	"/>
	<polyline id="SvgjsPolyline1189" class="st2" points="1701.5,693.8 1746,649.2 1749.6,652.8 1705,697.3 	"/>
	<polyline id="SvgjsPolyline1190" class="st2" points="1406.5,716.8 1417.9,705.5 1425.6,713.3 1414.3,724.6 	"/>
	<polyline id="SvgjsPolyline1191" class="st2" points="1348.8,551.6 1365.7,534.6 1370,538.9 1353,555.8 	"/>
	<polyline id="SvgjsPolyline1192" class="st2" points="1048.1,742.6 1053.8,736.9 1062.2,745.4 1056.6,751.1 	"/>
	<polyline id="SvgjsPolyline1193" class="st2" points="1445.6,1013.9 1451.3,1008.2 1486.6,1043.6 1481,1049.2 	"/>
	<polyline id="SvgjsPolyline1194" class="st2" points="1775.9,666.2 1778.7,663.4 1799.2,683.9 1796.4,686.7 	"/>
	<polyline id="SvgjsPolyline1195" class="st2" points="1523.3,939.9 1532.5,930.7 1547.3,945.5 1538.2,954.7 	"/>
	<polyline id="SvgjsPolyline1196" class="st2" points="1301.9,652.5 1305.4,649 1328.7,672.3 1325.2,675.8 	"/>
	<polyline id="SvgjsPolyline1197" class="st2" points="1725.8,707 1747,685.8 1767.5,706.3 1746.3,727.5 	"/>
	<polyline id="SvgjsPolyline1198" class="st2" points="1739.4,732.4 1744.4,727.4 1786.8,769.9 1781.9,774.8 	"/>
	<polyline id="SvgjsPolyline1199" class="st2" points="1714.5,776 1722.2,768.2 1735.7,781.7 1727.9,789.5 	"/>
	<polyline id="SvgjsPolyline1200" class="st2" points="993.4,957.5 1018.1,932.8 1035.8,950.5 1011.1,975.2 	"/>
	<polyline id="SvgjsPolyline1201" class="st2" points="1533.8,728.8 1546.5,716 1557.9,727.4 1545.1,740.1 	"/>
	<polyline id="SvgjsPolyline1202" class="st2" points="1575.6,670.4 1581.9,664.1 1606.7,688.8 1600.3,695.2 	"/>
	<polyline id="SvgjsPolyline1203" class="st2" points="1292.4,1050.2 1303,1039.6 1311.5,1048.1 1300.9,1058.7 	"/>
	<polyline id="SvgjsPolyline1204" class="st2" points="1192.3,1080.6 1207.2,1065.7 1210.7,1069.3 1195.9,1084.1 	"/>
	<polyline id="SvgjsPolyline1205" class="st2" points="1350.5,364.4 1360.4,354.5 1385.9,379.9 1376,389.8 	"/>
	<polyline id="SvgjsPolyline1206" class="st2" points="1248.6,1176.5 1281.1,1144 1286.8,1149.6 1254.2,1182.2 	"/>
	<polyline id="SvgjsPolyline1207" class="st2" points="904.3,851.2 915.6,839.9 919.2,843.5 907.9,854.8 	"/>
	<polyline id="SvgjsPolyline1208" class="st2" points="1427.4,1069.3 1435.9,1060.8 1446.5,1071.4 1438,1079.9 	"/>
	<polyline id="SvgjsPolyline1209" class="st2" points="1236.8,827 1241,822.8 1257.3,839 1253,843.3 	"/>
	<polyline id="SvgjsPolyline1210" class="st2" points="744.1,721.3 775.2,690.1 787.9,702.9 756.8,734 	"/>
	<polyline id="SvgjsPolyline1211" class="st2" points="1196.1,977.5 1206.7,966.9 1221.6,981.7 1211,992.3 	"/>
	<polyline id="SvgjsPolyline1212" class="st2" points="1470,593.4 1489.1,574.3 1503.2,588.5 1484.1,607.6 	"/>
	<polyline id="SvgjsPolyline1213" class="st2" points="1013,703.1 1019.4,696.8 1029.3,706.7 1022.9,713 	"/>
	<polyline id="SvgjsPolyline1214" class="st2" points="972.3,935.2 987.9,919.6 999.2,930.9 983.6,946.5 	"/>
	<polyline id="SvgjsPolyline1215" class="st2" points="1025.3,965.8 1029.6,961.5 1038.8,970.7 1034.5,975 	"/>
	<polyline id="SvgjsPolyline1216" class="st2" points="1344.9,897.2 1349.2,892.9 1361.2,905 1356.9,909.2 	"/>
	<polyline id="SvgjsPolyline1217" class="st2" points="1312.9,680.9 1319.3,674.6 1329.2,684.5 1322.8,690.8 	"/>
	<polyline id="SvgjsPolyline1218" class="st2" points="1342.6,223 1359.5,206.1 1370.1,216.7 1353.2,233.7 	"/>
	<polyline id="SvgjsPolyline1219" class="st2" points="1314.3,870.4 1327.7,856.9 1332,861.2 1318.6,874.6 	"/>
	<polyline id="SvgjsPolyline1220" class="st2" points="1600.1,658.3 1620.6,637.8 1629.1,646.2 1608.6,666.7 	"/>
	<polyline id="SvgjsPolyline1221" class="st2" points="1195.5,1100.7 1224.5,1071.7 1233.7,1080.9 1204.7,1109.9 	"/>
	<polyline id="SvgjsPolyline1222" class="st2" points="1744.3,633.3 1781.1,596.5 1783.9,599.3 1747.2,636.1 	"/>
	<polyline id="SvgjsPolyline1223" class="st2" points="1838.2,657.1 1841.7,653.6 1880.6,692.5 1877.1,696 	"/>
	<polyline id="SvgjsPolyline1224" class="st2" points="1226,629.5 1249.3,606.1 1252.9,609.7 1229.5,633 	"/>
	<polyline id="SvgjsPolyline1225" class="st2" points="879.1,799.7 882.7,796.1 901.8,815.2 898.2,818.7 	"/>
	<polyline id="SvgjsPolyline1226" class="st2" points="1048.9,660.3 1051.7,657.5 1080,685.8 1077.2,688.6 	"/>
	<polyline id="SvgjsPolyline1227" class="st2" points="845.8,806.8 869.2,783.4 876.9,791.2 853.6,814.6 	"/>
	<polyline id="SvgjsPolyline1228" class="st2" points="1229.6,462.2 1233.9,457.9 1260.7,484.8 1256.5,489.1 	"/>
	<polyline id="SvgjsPolyline1229" class="st2" points="1447.9,516 1457.8,506.1 1465.5,513.9 1455.6,523.8 	"/>
	<polyline id="SvgjsPolyline1230" class="st2" points="1319.9,618.1 1341.9,596.2 1348.2,602.5 1326.3,624.5 	"/>
	<polyline id="SvgjsPolyline1231" class="st2" points="1344.7,1089.9 1365.9,1068.7 1373.7,1076.4 1352.5,1097.7 	"/>
	<polyline id="SvgjsPolyline1232" class="st2" points="1597.1,892.9 1606.3,883.7 1617.6,895 1608.4,904.2 	"/>
	<polyline id="SvgjsPolyline1233" class="st2" points="1280.9,193 1321.9,152 1325.4,155.6 1284.4,196.6 	"/>
	<polyline id="SvgjsPolyline1234" class="st2" points="1330.5,655.8 1371.6,614.8 1375.1,618.3 1334.1,659.4 	"/>
	<polyline id="SvgjsPolyline1235" class="st2" points="1751.4,677.8 1759.2,670 1768.4,679.2 1760.6,687 	"/>
	<polyline id="SvgjsPolyline1236" class="st2" points="987.6,524.3 998.9,513 1003.8,518 992.5,529.3 	"/>
	<polyline id="SvgjsPolyline1237" class="st2" points="1079.9,609 1094.8,594.1 1128.7,628.1 1113.8,642.9 	"/>
	<polyline id="SvgjsPolyline1238" class="st2" points="1033.3,382.6 1039,376.9 1051,388.9 1045.3,394.6 	"/>
	<polyline id="SvgjsPolyline1239" class="st2" points="1330.9,1190.5 1345.8,1175.6 1354.3,1184.1 1339.4,1199 	"/>
	<polyline id="SvgjsPolyline1240" class="st2" points="1298.4,400.3 1304.8,394 1325.3,414.5 1318.9,420.8 	"/>
	<polyline id="SvgjsPolyline1241" class="st2" points="1443.3,383.6 1482.2,344.7 1485.7,348.2 1446.8,387.1 	"/>
	<polyline id="SvgjsPolyline1242" class="st2" points="1485.1,854.9 1507,833 1515.5,841.5 1493.5,863.4 	"/>
	<polyline id="SvgjsPolyline1243" class="st2" points="1410.8,1015 1421.4,1004.4 1430.6,1013.6 1420,1024.2 	"/>
	<polyline id="SvgjsPolyline1244" class="st2" points="1389.4,308 1399.3,298.1 1424.7,323.6 1414.8,333.5 	"/>
	<polyline id="SvgjsPolyline1245" class="st2" points="1180,380.7 1197,363.8 1214.7,381.4 1197.7,398.4 	"/>
	<polyline id="SvgjsPolyline1246" class="st2" points="888.9,753.2 894.6,747.6 909.4,762.4 903.8,768.1 	"/>
	<polyline id="SvgjsPolyline1247" class="st2" points="1190.9,916.4 1193.7,913.5 1207.9,927.7 1205,930.5 	"/>
	<polyline id="SvgjsPolyline1248" class="st2" points="1145.3,418.6 1170.1,393.8 1172.9,396.6 1148.2,421.4 	"/>
	<polyline id="SvgjsPolyline1249" class="st2" points="1382.1,513.1 1391.2,503.9 1404.7,517.4 1395.5,526.6 	"/>
	<polyline id="SvgjsPolyline1250" class="st2" points="1442.4,1030.5 1445.2,1027.7 1474.2,1056.7 1471.4,1059.5 	"/>
	<polyline id="SvgjsPolyline1251" class="st2" points="1156.2,415.4 1170.4,401.3 1173.2,404.1 1159.1,418.2 	"/>
	<polyline id="SvgjsPolyline1252" class="st2" points="1197.4,327.7 1207.3,317.8 1215.8,326.3 1205.9,336.2 	"/>
	<polyline id="SvgjsPolyline1253" class="st2" points="795.6,591 823.9,562.7 828.2,567 799.9,595.2 	"/>
	<polyline id="SvgjsPolyline1254" class="st2" points="1266.7,1231.7 1282.9,1215.4 1297.8,1230.3 1281.5,1246.5 	"/>
	<polyline id="SvgjsPolyline1255" class="st2" points="1283,375 1301.3,356.7 1304.9,360.2 1286.5,378.6 	"/>
	<polyline id="SvgjsPolyline1256" class="st2" points="994.3,847.7 1003.5,838.5 1009.9,844.8 1000.7,854 	"/>
	<polyline id="SvgjsPolyline1257" class="st2" points="1295.4,1034 1308.1,1021.2 1310.9,1024.1 1298.2,1036.8 	"/>
	<polyline id="SvgjsPolyline1258" class="st2" points="1012.5,582.9 1054.9,540.4 1065.5,551.1 1023.1,593.5 	"/>
	<polyline id="SvgjsPolyline1259" class="st2" points="927.2,660.5 934.3,653.5 944.9,664.1 937.8,671.1 	"/>
	<polyline id="SvgjsPolyline1260" class="st2" points="1281.1,570.4 1301.6,549.9 1305.8,554.1 1285.3,574.6 	"/>
	<polyline id="SvgjsPolyline1261" class="st2" points="1256.7,1169.2 1280,1145.9 1285,1150.8 1261.6,1174.1 	"/>
	<polyline id="SvgjsPolyline1262" class="st2" points="1468.5,643.8 1471.3,641 1484,653.7 1481.2,656.5 	"/>
	<polyline id="SvgjsPolyline1263" class="st2" points="1643.6,471.7 1655.6,459.7 1658.5,462.5 1646.4,474.6 	"/>
	<polyline id="SvgjsPolyline1264" class="st2" points="1262.7,549.8 1282.5,530 1289.6,537 1269.8,556.8 	"/>
	<polyline id="SvgjsPolyline1265" class="st2" points="964.3,931 982,913.3 1008.8,940.2 991.2,957.9 	"/>
	<polyline id="SvgjsPolyline1266" class="st2" points="825.1,688.8 847.7,666.2 859.7,678.2 837.1,700.8 	"/>
	<polyline id="SvgjsPolyline1267" class="st2" points="1746.1,608.3 1783.5,570.8 1789.2,576.5 1751.7,614 	"/>
	<polyline id="SvgjsPolyline1268" class="st2" points="1240.3,872.3 1243.2,869.4 1251.6,877.9 1248.8,880.7 	"/>
	<polyline id="SvgjsPolyline1269" class="st2" points="1529.2,472 1534.8,466.4 1546.2,477.7 1540.5,483.3 	"/>
	<polyline id="SvgjsPolyline1270" class="st2" points="1333.1,249.2 1337.3,244.9 1346.5,254.1 1342.3,258.4 	"/>
	<polyline id="SvgjsPolyline1271" class="st2" points="1060.4,1017.1 1079.5,998 1089.4,1007.9 1070.3,1027 	"/>
	<polyline id="SvgjsPolyline1272" class="st2" points="1607.1,610.8 1611.3,606.5 1639.6,634.8 1635.3,639.1 	"/>
	<polyline id="SvgjsPolyline1273" class="st2" points="769.6,672.9 780.9,661.6 795.7,676.4 784.4,687.7 	"/>
	<polyline id="SvgjsPolyline1274" class="st2" points="1365.7,741.4 1394.7,712.4 1398.3,716 1369.3,745 	"/>
	<polyline id="SvgjsPolyline1275" class="st2" points="1354.5,1022.7 1360.9,1016.3 1376.5,1031.9 1370.1,1038.2 	"/>
	<polyline id="SvgjsPolyline1276" class="st2" points="874.3,740.5 885.6,729.2 922.3,766 911,777.3 	"/>
	<polyline id="SvgjsPolyline1277" class="st2" points="1264.1,1031.5 1273.3,1022.3 1282.5,1031.5 1273.3,1040.7 	"/>
	<polyline id="SvgjsPolyline1278" class="st2" points="998.2,761.1 1015.9,743.5 1018.7,746.3 1001,764 	"/>
	<polyline id="SvgjsPolyline1279" class="st2" points="1677.2,835.9 1690.6,822.5 1699.1,831 1685.6,844.4 	"/>
	<polyline id="SvgjsPolyline1280" class="st2" points="1463.6,766.5 1476.3,753.7 1489.7,767.2 1477,779.9 	"/>
	<polyline id="SvgjsPolyline1281" class="st2" points="1017.8,424.6 1027,415.4 1035.5,423.9 1026.3,433.1 	"/>
	<polyline id="SvgjsPolyline1282" class="st2" points="1463.8,540.2 1473,531 1484.3,542.3 1475.1,551.5 	"/>
	<polyline id="SvgjsPolyline1283" class="st2" points="1190.8,1052.6 1202.1,1041.3 1204.9,1044.1 1193.6,1055.4 	"/>
	<polyline id="SvgjsPolyline1284" class="st2" points="1751.4,639.9 1767,624.3 1773.4,630.7 1757.8,646.2 	"/>
	<polyline id="SvgjsPolyline1285" class="st2" points="1622.7,902.1 1629.8,895 1639,904.2 1631.9,911.3 	"/>
	<polyline id="SvgjsPolyline1286" class="st2" points="1314.5,705 1323,696.5 1327.2,700.7 1318.7,709.2 	"/>
	<polyline id="SvgjsPolyline1287" class="st2" points="839.1,767.4 849,757.5 858.9,767.4 849,777.3 	"/>
	<polyline id="SvgjsPolyline1288" class="st2" points="1067.7,715.4 1080.4,702.7 1091.8,714 1079,726.7 	"/>
	<polyline id="SvgjsPolyline1289" class="st2" points="771.4,725.6 787,710.1 789.8,712.9 774.2,728.5 	"/>
	<polyline id="SvgjsPolyline1290" class="st2" points="1025,966.1 1041.2,949.9 1056.1,964.7 1039.8,981 	"/>
	<polyline id="SvgjsPolyline1291" class="st2" points="1157.8,354.7 1167.7,344.8 1175.5,352.5 1165.6,362.4 	"/>
	<polyline id="SvgjsPolyline1292" class="st2" points="845.1,741.6 852.9,733.8 861.4,742.3 853.6,750.1 	"/>
	<polyline id="SvgjsPolyline1293" class="st2" points="1129.2,552.5 1139.1,542.6 1144,547.5 1134.1,557.4 	"/>
	<polyline id="SvgjsPolyline1294" class="st2" points="1320.4,1196.2 1324.6,1191.9 1342.3,1209.6 1338,1213.9 	"/>
	<polyline id="SvgjsPolyline1295" class="st2" points="1176.4,473.4 1180.6,469.2 1198.3,486.9 1194.1,491.1 	"/>
	<polyline id="SvgjsPolyline1296" class="st2" points="959.2,427.6 967.7,419.1 981.8,433.2 973.4,441.7 	"/>
	<polyline id="SvgjsPolyline1297" class="st2" points="951.1,572.1 956.8,566.4 965.3,574.9 959.6,580.6 	"/>
	<polyline id="SvgjsPolyline1298" class="st2" points="1486,330.3 1503,313.3 1511.5,321.8 1494.5,338.8 	"/>
	<polyline id="SvgjsPolyline1299" class="st2" points="1061.9,536.6 1068.3,530.3 1099.4,561.4 1093,567.8 	"/>
	<polyline id="SvgjsPolyline1300" class="st2" points="1271.8,426.1 1277.4,420.5 1293.7,436.7 1288,442.4 	"/>
	<polyline id="SvgjsPolyline1301" class="st2" points="886.9,679.4 896.8,669.5 906.7,679.4 896.8,689.3 	"/>
	<polyline id="SvgjsPolyline1302" class="st2" points="1017.5,825.5 1032.4,810.7 1036.6,814.9 1021.8,829.7 	"/>
	<polyline id="SvgjsPolyline1303" class="st2" points="1310.9,1094.6 1327.9,1077.6 1331.5,1081.2 1314.5,1098.2 	"/>
	<polyline id="SvgjsPolyline1304" class="st2" points="1387.5,591 1392.4,586.1 1405.1,598.8 1400.2,603.7 	"/>
	<polyline id="SvgjsPolyline1305" class="st2" points="1620.7,548.9 1634.2,535.4 1642.7,543.9 1629.2,557.4 	"/>
	<polyline id="SvgjsPolyline1306" class="st2" points="851.2,810.2 863.9,797.5 866.8,800.3 854,813 	"/>
	<polyline id="SvgjsPolyline1307" class="st2" points="1585.7,748.8 1590,744.6 1605.5,760.1 1601.3,764.4 	"/>
	<polyline id="SvgjsPolyline1308" class="st2" points="1515.2,464.2 1523,456.4 1532.9,466.3 1525.1,474.1 	"/>
	<polyline id="SvgjsPolyline1309" class="st2" points="1093.3,290.7 1096.1,287.9 1116.6,308.4 1113.8,311.2 	"/>
	<polyline id="SvgjsPolyline1310" class="st2" points="1020,889.1 1030.6,878.5 1046.8,894.7 1036.2,905.3 	"/>
	<polyline id="SvgjsPolyline1311" class="st2" points="842.9,709.9 864.9,688 876.2,699.3 854.2,721.2 	"/>
	<polyline id="SvgjsPolyline1312" class="st2" points="1208.7,855.2 1212.3,851.7 1230,869.4 1226.4,872.9 	"/>
	<polyline id="SvgjsPolyline1313" class="st2" points="1371.3,655.2 1391.1,635.4 1397.5,641.8 1377.7,661.6 	"/>
	<polyline id="SvgjsPolyline1314" class="st2" points="1295.6,151.8 1309,138.4 1315.4,144.7 1301.9,158.2 	"/>
	<polyline id="SvgjsPolyline1315" class="st2" points="1487.4,704.2 1501.5,690.1 1504.4,692.9 1490.2,707.1 	"/>
	<polyline id="SvgjsPolyline1316" class="st2" points="1290.8,855.9 1300.7,846 1304.3,849.5 1294.4,859.4 	"/>
	<polyline id="SvgjsPolyline1317" class="st2" points="1282.5,942 1293.1,931.4 1303.7,942 1293.1,952.6 	"/>
	<polyline id="SvgjsPolyline1318" class="st2" points="1109.2,678.4 1132.6,655.1 1136.8,659.3 1113.5,682.7 	"/>
	<polyline id="SvgjsPolyline1319" class="st2" points="796.1,664.4 820.8,639.6 837.8,656.6 813.1,681.4 	"/>
	<polyline id="SvgjsPolyline1320" class="st2" points="1246.1,403.9 1248.9,401 1268,420.1 1265.2,423 	"/>
	<polyline id="SvgjsPolyline1321" class="st2" points="1081.1,884.5 1088.2,877.4 1103,892.3 1096,899.3 	"/>
	<polyline id="SvgjsPolyline1322" class="st2" points="1225.7,652.7 1229.2,649.1 1242.7,662.6 1239.1,666.1 	"/>
	<polyline id="SvgjsPolyline1323" class="st2" points="1249,741.8 1254.7,736.1 1267.4,748.8 1261.8,754.5 	"/>
	<polyline id="SvgjsPolyline1324" class="st2" points="1623,455.2 1644.9,433.3 1656.2,444.6 1634.3,466.6 	"/>
	<polyline id="SvgjsPolyline1325" class="st2" points="1174.7,1124 1179,1119.8 1202.3,1143.1 1198.1,1147.4 	"/>
	<polyline id="SvgjsPolyline1326" class="st2" points="1314.1,171.7 1323.3,162.5 1326.1,165.3 1316.9,174.5 	"/>
	<polyline id="SvgjsPolyline1327" class="st2" points="1621,488 1656.4,452.7 1666.3,462.6 1630.9,497.9 	"/>
	<polyline id="SvgjsPolyline1328" class="st2" points="1619.4,820.8 1637.8,802.4 1644.8,809.5 1626.5,827.9 	"/>
	<polyline id="SvgjsPolyline1329" class="st2" points="1210.9,846.7 1224.3,833.2 1243.4,852.3 1230,865.8 	"/>
	<polyline id="SvgjsPolyline1330" class="st2" points="1296.9,1078 1313.1,1061.7 1321.6,1070.2 1305.3,1086.5 	"/>
	<polyline id="SvgjsPolyline1331" class="st2" points="1050.7,879.2 1054.2,875.7 1068.3,889.9 1064.8,893.4 	"/>
	<polyline id="SvgjsPolyline1332" class="st2" points="1126.6,381.7 1134.3,374 1151.3,390.9 1143.5,398.7 	"/>
	<polyline id="SvgjsPolyline1333" class="st2" points="1281.4,219.5 1290.6,210.3 1294.1,213.9 1284.9,223.1 	"/>
	<polyline id="SvgjsPolyline1334" class="st3" points="1492.7,799.5 1503.3,788.9 1507.6,793.1 1497,803.7 	"/>
	<polyline id="SvgjsPolyline1335" class="st3" points="1327.3,1152.6 1337.2,1142.7 1354.2,1159.6 1344.3,1169.5 	"/>
	<polyline id="SvgjsPolyline1336" class="st3" points="1419.8,1026.9 1427.5,1019.1 1438.9,1030.4 1431.1,1038.2 	"/>
	<polyline id="SvgjsPolyline1337" class="st3" points="1617.8,570.3 1632.6,555.4 1635.4,558.3 1620.6,573.1 	"/>
	<polyline id="SvgjsPolyline1338" class="st3" points="1114.4,509.7 1151.2,472.9 1173.1,494.8 1136.3,531.6 	"/>
	<polyline id="SvgjsPolyline1339" class="st3" points="1293.3,985.2 1309.6,969 1333.6,993 1317.4,1009.3 	"/>
	<polyline id="SvgjsPolyline1340" class="st3" points="1024.7,350.4 1043.8,331.3 1088.4,375.8 1069.3,394.9 	"/>
	<polyline id="SvgjsPolyline1341" class="st3" points="1160.8,473.8 1167.1,467.4 1175.6,475.9 1169.2,482.3 	"/>
	<polyline id="SvgjsPolyline1342" class="st3" points="771.2,754.8 809.4,716.6 815.7,723 777.5,761.2 	"/>
	<polyline id="SvgjsPolyline1343" class="st3" points="1213.2,996 1224.5,984.7 1236.6,996.7 1225.2,1008 	"/>
	<polyline id="SvgjsPolyline1344" class="st3" points="1320.4,289.4 1326.8,283 1371.3,327.6 1365,333.9 	"/>
	<polyline id="SvgjsPolyline1345" class="st3" points="1367.3,1059.8 1383.5,1043.5 1404,1064 1387.8,1080.3 	"/>
	<polyline id="SvgjsPolyline1346" class="st3" points="1534.4,693.9 1544.3,684 1547.2,686.8 1537.3,696.7 	"/>
	<polyline id="SvgjsPolyline1347" class="st3" points="1196.7,480.1 1204.4,472.3 1241.2,509.1 1233.4,516.9 	"/>
	<polyline id="SvgjsPolyline1348" class="st3" points="1271.7,835.7 1280.9,826.5 1299.3,844.9 1290.1,854.1 	"/>
	<polyline id="SvgjsPolyline1349" class="st3" points="1288.7,914.5 1299.3,903.9 1309.9,914.5 1299.3,925.1 	"/>
	<polyline id="SvgjsPolyline1350" class="st3" points="1215.5,965.1 1236,944.6 1241,949.5 1220.4,970 	"/>
	<polyline id="SvgjsPolyline1351" class="st3" points="1448.6,424.6 1468.4,404.8 1475.5,411.9 1455.7,431.7 	"/>
	<polyline id="SvgjsPolyline1352" class="st3" points="1393,1050.8 1414.2,1029.6 1429,1044.4 1407.8,1065.6 	"/>
	<polyline id="SvgjsPolyline1353" class="st3" points="1511,949 1542.1,917.8 1559.1,934.8 1527.9,965.9 	"/>
	<polyline id="SvgjsPolyline1354" class="st3" points="1348.1,659.5 1377.1,630.5 1380.6,634 1351.6,663 	"/>
	<polyline id="SvgjsPolyline1355" class="st3" points="848.3,532 855.4,525 878.7,548.3 871.6,555.4 	"/>
	<polyline id="SvgjsPolyline1356" class="st3" points="859,717.2 882.4,693.8 888,699.5 864.7,722.8 	"/>
	<polyline id="SvgjsPolyline1357" class="st3" points="1379.5,623 1392.9,609.6 1399.3,616 1385.9,629.4 	"/>
	<polyline id="SvgjsPolyline1358" class="st3" points="1079.8,1039.7 1100.4,1019.2 1103.9,1022.7 1083.4,1043.2 	"/>
	<polyline id="SvgjsPolyline1359" class="st3" points="1219.5,418.4 1233.6,404.3 1249.9,420.5 1235.8,434.7 	"/>
	<polyline id="SvgjsPolyline1360" class="st3" points="1254.2,498.4 1265.5,487 1274,495.5 1262.7,506.8 	"/>
	<polyline id="SvgjsPolyline1361" class="st3" points="1598,832.6 1606.5,824.2 1621.3,839 1612.8,847.5 	"/>
	<polyline id="SvgjsPolyline1362" class="st3" points="1242.7,710.6 1249.1,704.2 1278.8,733.9 1272.4,740.3 	"/>
	<polyline id="SvgjsPolyline1363" class="st3" points="1089.5,845.5 1095.8,839.2 1106.4,849.8 1100.1,856.1 	"/>
	<polyline id="SvgjsPolyline1364" class="st3" points="932.8,694.3 935.7,691.5 976.7,732.5 973.8,735.3 	"/>
	<polyline id="SvgjsPolyline1365" class="st3" points="1326.3,955.8 1336.9,945.2 1351.1,959.4 1340.5,970 	"/>
	<polyline id="SvgjsPolyline1366" class="st3" points="1114.6,954.2 1119.5,949.3 1132.9,962.7 1128,967.7 	"/>
	<polyline id="SvgjsPolyline1367" class="st3" points="1279.8,1162.6 1315.8,1126.6 1322.2,1132.9 1286.1,1169 	"/>
	<polyline id="SvgjsPolyline1368" class="st3" points="1505.1,739.9 1519.9,725.1 1538.3,743.5 1523.5,758.3 	"/>
	<polyline id="SvgjsPolyline1369" class="st3" points="1291.7,258.4 1327.8,222.3 1337,231.5 1300.9,267.6 	"/>
	<polyline id="SvgjsPolyline1370" class="st3" points="1497.8,636.6 1506.3,628.1 1515.5,637.3 1507,645.8 	"/>
	<polyline id="SvgjsPolyline1371" class="st3" points="1139.3,565 1152.7,551.5 1157.7,556.5 1144.2,569.9 	"/>
	<polyline id="SvgjsPolyline1372" class="st3" points="1311.1,1185.4 1330.9,1165.6 1337.3,1172 1317.5,1191.8 	"/>
	<polyline id="SvgjsPolyline1373" class="st3" points="1414.2,729.3 1451.7,691.8 1454.5,694.6 1417,732.1 	"/>
	<polyline id="SvgjsPolyline1374" class="st3" points="1408.9,843.1 1415.3,836.7 1447.1,868.5 1440.8,874.9 	"/>
	<polyline id="SvgjsPolyline1375" class="st3" points="1288.8,407 1291.6,404.2 1318.5,431.1 1315.7,433.9 	"/>
	<polyline id="SvgjsPolyline1376" class="st3" points="1606.3,847 1609.2,844.2 1630.4,865.4 1627.6,868.2 	"/>
	<polyline id="SvgjsPolyline1377" class="st3" points="1175.7,433.6 1199,410.3 1218.1,429.4 1194.8,452.7 	"/>
	<polyline id="SvgjsPolyline1378" class="st3" points="1230.1,1145.7 1244.2,1131.6 1263.3,1150.7 1249.2,1164.8 	"/>
	<polyline id="SvgjsPolyline1379" class="st3" points="1035.1,410.8 1039.4,406.5 1060.6,427.7 1056.3,432 	"/>
	<polyline id="SvgjsPolyline1380" class="st3" points="1732.7,567.8 1742.6,557.9 1768.8,584.1 1758.9,594 	"/>
	<polyline id="SvgjsPolyline1381" class="st3" points="1607.7,708.2 1644.4,671.4 1664.2,691.2 1627.5,728 	"/>
	<polyline id="SvgjsPolyline1382" class="st3" points="1330.8,201.4 1365.4,166.8 1370.4,171.7 1335.7,206.4 	"/>
	<polyline id="SvgjsPolyline1383" class="st3" points="1320.6,873.5 1356.6,837.4 1376.4,857.2 1340.4,893.3 	"/>
	<polyline id="SvgjsPolyline1384" class="st3" points="1752.4,722.1 1771.5,703 1813.2,744.7 1794.2,763.8 	"/>
	<polyline id="SvgjsPolyline1385" class="st3" points="880.1,830.7 887.2,823.6 902.1,838.5 895,845.6 	"/>
	<polyline id="SvgjsPolyline1386" class="st3" points="1482.5,840.6 1512.2,810.9 1519.9,818.7 1490.2,848.4 	"/>
	<polyline id="SvgjsPolyline1387" class="st3" points="1553.8,741.7 1560.1,735.4 1569.3,744.6 1563,750.9 	"/>
	<polyline id="SvgjsPolyline1388" class="st3" points="1423.4,832.1 1436.1,819.3 1441.1,824.3 1428.4,837 	"/>
	<polyline id="SvgjsPolyline1389" class="st3" points="1357.3,276.3 1364.4,269.2 1388.4,293.3 1381.3,300.3 	"/>
	<polyline id="SvgjsPolyline1390" class="st3" points="1563.1,663.5 1574.4,652.2 1617.5,695.3 1606.2,706.7 	"/>
	<polyline id="SvgjsPolyline1391" class="st3" points="1188.8,1159.4 1224.9,1123.4 1228.4,1126.9 1192.4,1163 	"/>
	<polyline id="SvgjsPolyline1392" class="st3" points="1780.3,711.1 1791.6,699.8 1828.4,736.6 1817,747.9 	"/>
	<polyline id="SvgjsPolyline1393" class="st3" points="1604.4,658.4 1621.3,641.5 1624.2,644.3 1607.2,661.3 	"/>
	<polyline id="SvgjsPolyline1394" class="st3" points="1161.5,1097.7 1175.7,1083.6 1202.5,1110.5 1188.4,1124.6 	"/>
	<polyline id="SvgjsPolyline1395" class="st3" points="910.1,682.4 914.3,678.2 934.1,698 929.9,702.2 	"/>
	<polyline id="SvgjsPolyline1396" class="st3" points="1721.4,551.7 1737.6,535.4 1741.2,539 1724.9,555.2 	"/>
	<polyline id="SvgjsPolyline1397" class="st3" points="1096.7,621.7 1108.1,610.3 1122.2,624.5 1110.9,635.8 	"/>
	<polyline id="SvgjsPolyline1398" class="st3" points="1243.6,195.9 1250.6,188.8 1269,207.2 1262,214.3 	"/>
	<polyline id="SvgjsPolyline1399" class="st3" points="1213.8,167.5 1219.4,161.9 1236.4,178.9 1230.7,184.5 	"/>
	<polyline id="SvgjsPolyline1400" class="st3" points="1264.5,676.8 1294.2,647.1 1306.9,659.9 1277.2,689.6 	"/>
	<polyline id="SvgjsPolyline1401" class="st3" points="1677.4,568 1688,557.4 1703.5,573 1692.9,583.6 	"/>
	<polyline id="SvgjsPolyline1402" class="st3" points="974.1,605 977.6,601.5 1006.6,630.5 1003.1,634 	"/>
	<polyline id="SvgjsPolyline1403" class="st3" points="1265.6,999.4 1276.9,988.1 1306.6,1017.8 1295.3,1029.1 	"/>
	<polyline id="SvgjsPolyline1404" class="st3" points="1311.3,381.2 1345.3,347.3 1352.4,354.4 1318.4,388.3 	"/>
	<polyline id="SvgjsPolyline1405" class="st3" points="1121.6,589.8 1128,583.4 1140.7,596.2 1134.3,602.5 	"/>
	<polyline id="SvgjsPolyline1406" class="st3" points="1590.1,741.7 1612,719.8 1619,726.9 1597.1,748.8 	"/>
	<polyline id="SvgjsPolyline1407" class="st3" points="1152.9,1046.2 1156.5,1042.7 1173.4,1059.6 1169.9,1063.2 	"/>
	<polyline id="SvgjsPolyline1408" class="st3" points="1648.1,834.9 1662.9,820 1667.2,824.3 1652.3,839.1 	"/>
	<polyline id="SvgjsPolyline1409" class="st3" points="1060.4,828.2 1064,824.7 1093.7,854.4 1090.1,857.9 	"/>
	<polyline id="SvgjsPolyline1410" class="st3" points="1826.1,676.4 1835.2,667.2 1849.4,681.4 1840.2,690.6 	"/>
	<polyline id="SvgjsPolyline1411" class="st3" points="980.2,398.5 1017,361.7 1033.2,377.9 996.5,414.7 	"/>
	<polyline id="SvgjsPolyline1412" class="st3" points="1358.8,1112.5 1377.9,1093.4 1416.1,1131.6 1397,1150.7 	"/>
	<polyline id="SvgjsPolyline1413" class="st3" points="1112.7,800.6 1120.4,792.8 1156.5,828.9 1148.7,836.6 	"/>
	<polyline id="SvgjsPolyline1414" class="st3" points="1558.7,720.9 1569.3,710.3 1585.6,726.6 1575,737.2 	"/>
	<polyline id="SvgjsPolyline1415" class="st3" points="1052.9,604.2 1060,597.1 1070.6,607.8 1063.5,614.8 	"/>
	<polyline id="SvgjsPolyline1416" class="st3" points="1328.8,559.2 1333.1,555 1345.1,567 1340.9,571.3 	"/>
	<polyline id="SvgjsPolyline1417" class="st3" points="827.2,775.3 847.7,754.8 868.9,776 848.4,796.5 	"/>
	<polyline id="SvgjsPolyline1418" class="st3" points="1696.7,630 1709.4,617.3 1720,627.9 1707.3,640.6 	"/>
	<polyline id="SvgjsPolyline1419" class="st3" points="1406.1,482.7 1445.7,443.1 1453.5,450.9 1413.9,490.5 	"/>
	<polyline id="SvgjsPolyline1420" class="st3" points="1141.2,926.5 1182.2,885.5 1194.2,897.5 1153.2,938.5 	"/>
	<polyline id="SvgjsPolyline1421" class="st3" points="1521.2,655.3 1536.7,639.8 1547.3,650.4 1531.8,665.9 	"/>
	<polyline id="SvgjsPolyline1422" class="st3" points="1796.3,675 1809.8,661.5 1823.2,675 1809.8,688.4 	"/>
	<polyline id="SvgjsPolyline1423" class="st3" points="1293.5,217.2 1301.3,209.4 1310.5,218.6 1302.7,226.4 	"/>
	<polyline id="SvgjsPolyline1424" class="st3" points="1633.5,869.5 1649.1,853.9 1652.6,857.5 1637.1,873 	"/>
	<polyline id="SvgjsPolyline1425" class="st3" points="1347.5,667.7 1385.7,629.5 1389.9,633.7 1351.7,671.9 	"/>
	<polyline id="SvgjsPolyline1426" class="st3" points="1185,294.6 1197.7,281.9 1203.4,287.5 1190.6,300.2 	"/>
	<polyline id="SvgjsPolyline1427" class="st3" points="1353.6,295 1362.8,285.8 1375.5,298.6 1366.3,307.8 	"/>
	<polyline id="SvgjsPolyline1428" class="st3" points="1229.7,320.1 1234.7,315.1 1243.2,323.6 1238.2,328.5 	"/>
	<polyline id="SvgjsPolyline1429" class="st3" points="1467,704.6 1471.2,700.4 1500.2,729.4 1496,733.6 	"/>
	<polyline id="SvgjsPolyline1430" class="st3" points="1652.6,618.3 1663.2,607.7 1692.2,636.7 1681.5,647.3 	"/>
	<polyline id="SvgjsPolyline1431" class="st3" points="1204.9,447.1 1207.7,444.3 1237.4,474 1234.6,476.8 	"/>
	<polyline id="SvgjsPolyline1432" class="st3" points="879.2,572.9 894.8,557.4 914.6,577.2 899,592.7 	"/>
	<polyline id="SvgjsPolyline1433" class="st3" points="1086.5,647.2 1095.7,638 1104.2,646.5 1095,655.7 	"/>
	<polyline id="SvgjsPolyline1434" class="st3" points="1272.3,619.6 1303.4,588.4 1306.2,591.3 1275.1,622.4 	"/>
	<polyline id="SvgjsPolyline1435" class="st3" points="1503.4,558.8 1532.3,529.8 1550.7,548.1 1521.7,577.1 	"/>
	<polyline id="SvgjsPolyline1436" class="st3" points="1117.9,537.4 1129.9,525.3 1139.1,534.5 1127.1,546.6 	"/>
	<polyline id="SvgjsPolyline1437" class="st3" points="1554.7,959.2 1558.3,955.6 1576,973.3 1572.4,976.9 	"/>
	<polyline id="SvgjsPolyline1438" class="st3" points="1096.4,875.6 1124,848 1130.4,854.4 1102.8,881.9 	"/>
	<polyline id="SvgjsPolyline1439" class="st3" points="1235.2,277.7 1257.1,255.7 1268.5,267 1246.5,289 	"/>
	<polyline id="SvgjsPolyline1440" class="st3" points="1238.7,388.9 1242.3,385.4 1258.5,401.6 1255,405.2 	"/>
	<polyline id="SvgjsPolyline1441" class="st3" points="1305.2,933.2 1310.2,928.2 1327.1,945.2 1322.2,950.2 	"/>
	<polyline id="SvgjsPolyline1442" class="st3" points="1431.3,506.9 1470.2,468 1475.9,473.7 1437,512.6 	"/>
	<polyline id="SvgjsPolyline1443" class="st3" points="1081.5,1017.1 1092.8,1005.8 1098.5,1011.5 1087.2,1022.8 	"/>
	<polyline id="SvgjsPolyline1444" class="st3" points="1294.2,578.5 1327.5,545.3 1330.3,548.1 1297,581.4 	"/>
	<polyline id="SvgjsPolyline1445" class="st3" points="1315.4,195.1 1326.7,183.8 1332.4,189.5 1321.1,200.8 	"/>
	<polyline id="SvgjsPolyline1446" class="st3" points="866.4,657.9 905.3,619 913.8,627.5 874.9,666.3 	"/>
	<polyline id="SvgjsPolyline1447" class="st3" points="1286.1,1216.8 1305.9,1197 1317.2,1208.3 1297.4,1228.1 	"/>
	<polyline id="SvgjsPolyline1448" class="st3" points="932.4,796.4 940.9,787.9 948.6,795.7 940.1,804.2 	"/>
	<polyline id="SvgjsPolyline1449" class="st3" points="1625.6,849.8 1636.9,838.5 1646.8,848.4 1635.5,859.7 	"/>
	<polyline id="SvgjsPolyline1450" class="st3" points="1266.8,792.1 1288.8,770.2 1295.1,776.6 1273.2,798.5 	"/>
	<polyline id="SvgjsPolyline1451" class="st3" points="1473.3,807 1490.2,790 1494.5,794.3 1477.5,811.3 	"/>
	<polyline id="SvgjsPolyline1452" class="st3" points="841,644.8 882.7,603.1 885.6,605.9 843.8,647.6 	"/>
	<polyline id="SvgjsPolyline1453" class="st3" points="1044.9,993.9 1056.9,981.9 1064.7,989.6 1052.6,1001.7 	"/>
	<polyline id="SvgjsPolyline1454" class="st3" points="1235.1,906.3 1262.7,878.8 1274.7,890.8 1247.1,918.4 	"/>
	<polyline id="SvgjsPolyline1455" class="st3" points="1543.4,895 1551.1,887.3 1568.1,904.2 1560.3,912 	"/>
	<polyline id="SvgjsPolyline1456" class="st3" points="988.6,584.4 995.6,577.4 1009.8,591.5 1002.7,598.6 	"/>
	<polyline id="SvgjsPolyline1457" class="st3" points="1568,697.5 1576.5,689 1586.4,698.9 1577.9,707.4 	"/>
	<polyline id="SvgjsPolyline1458" class="st3" points="1075.2,346.4 1078,343.5 1095.7,361.2 1092.9,364 	"/>
	<polyline id="SvgjsPolyline1459" class="st3" points="1327.6,670.5 1338.9,659.2 1344.6,664.8 1333.2,676.2 	"/>
	<polyline id="SvgjsPolyline1460" class="st3" points="1092.6,1004.9 1095.4,1002 1105.3,1011.9 1102.5,1014.8 	"/>
	<polyline id="SvgjsPolyline1461" class="st3" points="1512.9,738.1 1522.1,728.9 1532.7,739.5 1523.5,748.7 	"/>
	<polyline id="SvgjsPolyline1462" class="st3" points="941,747.5 963,725.5 966.5,729.1 944.6,751 	"/>
	<polyline id="SvgjsPolyline1463" class="st3" points="1531.1,354.2 1550.2,335.1 1559.4,344.3 1540.3,363.4 	"/>
	<polyline id="SvgjsPolyline1464" class="st3" points="1217.5,1063.2 1234.4,1046.2 1264.9,1076.6 1247.9,1093.6 	"/>
	<polyline id="SvgjsPolyline1465" class="st3" points="1408,533.1 1417.2,523.9 1434.9,541.6 1425.7,550.8 	"/>
	<polyline id="SvgjsPolyline1466" class="st3" points="932.7,642.9 937.6,638 965.2,665.6 960.2,670.5 	"/>
	<polyline id="SvgjsPolyline1467" class="st3" points="1337.3,615.4 1380.4,572.3 1383.2,575.1 1340.1,618.2 	"/>
	<polyline id="SvgjsPolyline1468" class="st3" points="1263.2,618.4 1279.5,602.1 1284.4,607.1 1268.2,623.3 	"/>
	<polyline id="SvgjsPolyline1469" class="st3" points="1241,933.2 1279.2,895 1284.2,900 1246,938.2 	"/>
	<polyline id="SvgjsPolyline1470" class="st3" points="1314.6,278.1 1330.1,262.6 1335.8,268.2 1320.2,283.8 	"/>
	<polyline id="SvgjsPolyline1471" class="st3" points="1665.6,708.1 1689.7,684.1 1693.2,687.6 1669.2,711.6 	"/>
	<polyline id="SvgjsPolyline1472" class="st3" points="1201.6,1155.7 1217.1,1140.2 1246.1,1169.2 1230.6,1184.7 	"/>
	<polyline id="SvgjsPolyline1473" class="st3" points="1190.4,990.5 1199.6,981.3 1210.9,992.6 1201.7,1001.8 	"/>
	<polyline id="SvgjsPolyline1474" class="st3" points="1191.4,718.6 1211.2,698.8 1221.8,709.4 1202,729.2 	"/>
	<polyline id="SvgjsPolyline1475" class="st3" points="1395,506.7 1411.2,490.5 1419.7,499 1403.4,515.2 	"/>
	<polyline id="SvgjsPolyline1476" class="st3" points="1474.1,699.6 1492.4,681.2 1497.4,686.2 1479,704.6 	"/>
	<polyline id="SvgjsPolyline1477" class="st3" points="1651.4,744 1664.1,731.3 1669.1,736.3 1656.3,749 	"/>
	<polyline id="SvgjsPolyline1478" class="st3" points="1065.1,620.1 1076.4,608.8 1094.1,626.5 1082.8,637.8 	"/>
	<polyline id="SvgjsPolyline1479" class="st3" points="1231.5,648.7 1252,628.2 1264,640.2 1243.5,660.7 	"/>
	<polyline id="SvgjsPolyline1480" class="st3" points="1017.7,448.9 1038.9,427.7 1052.3,441.1 1031.1,462.3 	"/>
	<polyline id="SvgjsPolyline1481" class="st3" points="1270.4,1049.7 1278.9,1041.2 1291,1053.2 1282.5,1061.7 	"/>
	<polyline id="SvgjsPolyline1482" class="st3" points="1688.8,577.4 1698,568.2 1702.2,572.5 1693,581.7 	"/>
	<polyline id="SvgjsPolyline1483" class="st3" points="1580.6,927.5 1591.9,916.2 1596.1,920.4 1584.8,931.7 	"/>
	<polyline id="SvgjsPolyline1484" class="st3" points="1372.1,240 1389.8,222.3 1400.4,232.9 1382.7,250.6 	"/>
	<polyline id="SvgjsPolyline1485" class="st3" points="1351,766.3 1364.5,752.8 1371.5,759.9 1358.1,773.3 	"/>
	<polyline id="SvgjsPolyline1486" class="st3" points="1028.1,526 1033,521.1 1045.1,533.1 1040.1,538.1 	"/>
	<polyline id="SvgjsPolyline1487" class="st3" points="1386.4,1042.1 1409.7,1018.7 1412.6,1021.6 1389.2,1044.9 	"/>
	<polyline id="SvgjsPolyline1488" class="st3" points="1092.6,1034.3 1104.6,1022.2 1116.7,1034.3 1104.6,1046.3 	"/>
	<polyline id="SvgjsPolyline1489" class="st3" points="1478.7,586.8 1485,580.4 1493.5,588.9 1487.2,595.3 	"/>
	<polyline id="SvgjsPolyline1490" class="st3" points="1146.7,522.4 1155.2,513.9 1158.7,517.4 1150.2,525.9 	"/>
	<polyline id="SvgjsPolyline1491" class="st3" points="1672,839.1 1692.5,818.5 1713.7,839.8 1693.2,860.3 	"/>
	<polyline id="SvgjsPolyline1492" class="st3" points="1205.3,671.7 1212.4,664.6 1233.6,685.8 1226.6,692.9 	"/>
	<polyline id="SvgjsPolyline1493" class="st3" points="1552.2,947.5 1567,932.7 1585.4,951.1 1570.6,965.9 	"/>
	<polyline id="SvgjsPolyline1494" class="st3" points="1434.9,1086.4 1465.3,1056 1470.9,1061.6 1440.5,1092.1 	"/>
	<polyline id="SvgjsPolyline1495" class="st3" points="1593.1,437.7 1603.7,427.1 1612.2,435.6 1601.6,446.2 	"/>
	<polyline id="SvgjsPolyline1496" class="st3" points="1226.1,713.1 1229,710.2 1239.6,720.8 1236.7,723.7 	"/>
	<polyline id="SvgjsPolyline1497" class="st3" points="1282.1,130.4 1305.5,107.1 1308.3,109.9 1285,133.2 	"/>
	<polyline id="SvgjsPolyline1498" class="st3" points="993.2,464.6 1001.7,456.1 1014.4,468.9 1006,477.3 	"/>
	<polyline id="SvgjsPolyline1499" class="st3" points="1153.9,798.4 1165.3,787.1 1182.9,804.8 1171.6,816.1 	"/>
	<polyline id="SvgjsPolyline1500" class="st3" points="1491.3,857.4 1502.6,846.1 1505.5,848.9 1494.1,860.3 	"/>
	<polyline id="SvgjsPolyline1501" class="st3" points="1120.9,560.6 1128.7,552.8 1137.9,562 1130.1,569.8 	"/>
	<polyline id="SvgjsPolyline1502" class="st3" points="1165.3,908.3 1183.7,890 1187.2,893.5 1168.8,911.9 	"/>
	<polyline id="SvgjsPolyline1503" class="st3" points="1115.9,757.9 1132.8,740.9 1153.4,761.4 1136.4,778.4 	"/>
	<polyline id="SvgjsPolyline1504" class="st3" points="828.4,593.5 833.4,588.5 854.6,609.7 849.6,614.7 	"/>
	<polyline id="SvgjsPolyline1505" class="st3" points="797.9,664 816.3,645.6 831.2,660.5 812.8,678.8 	"/>
	<polyline id="SvgjsPolyline1506" class="st3" points="1231.6,306.4 1271.2,266.8 1291.7,287.3 1252.1,326.9 	"/>
	<polyline id="SvgjsPolyline1507" class="st3" points="1644.7,521 1660.3,505.4 1676.6,521.7 1661,537.3 	"/>
	<polyline id="SvgjsPolyline1508" class="st3" points="1393.3,982.2 1396.1,979.4 1406,989.3 1403.2,992.1 	"/>
	<polyline id="SvgjsPolyline1509" class="st3" points="1246.9,342.6 1268.8,320.7 1278,329.8 1256.1,351.8 	"/>
	<polyline id="SvgjsPolyline1510" class="st3" points="1407.1,558.5 1410.6,555 1436.1,580.4 1432.6,583.9 	"/>
	<polyline id="SvgjsPolyline1511" class="st3" points="1391.9,724.2 1401.1,715 1407.5,721.3 1398.3,730.5 	"/>
	<polyline id="SvgjsPolyline1512" class="st3" points="1352.7,983.4 1360.5,975.6 1369.7,984.8 1361.9,992.6 	"/>
	<polyline id="SvgjsPolyline1513" class="st3" points="810.6,771.2 831.1,750.7 840.3,759.9 819.8,780.4 	"/>
	<polyline id="SvgjsPolyline1514" class="st3" points="1483.3,749.7 1498.9,734.2 1513.7,749 1498.2,764.6 	"/>
	<polyline id="SvgjsPolyline1515" class="st3" points="1115.9,543.8 1118.8,540.9 1128.7,550.8 1125.8,553.7 	"/>
	<polyline id="SvgjsPolyline1516" class="st3" points="1766.4,729.8 1778.4,717.8 1787.6,727 1775.6,739 	"/>
	<polyline id="SvgjsPolyline1517" class="st3" points="871.3,824.1 884.7,810.6 887.5,813.5 874.1,826.9 	"/>
	<polyline id="SvgjsPolyline1518" class="st3" points="1683.1,512.5 1694.4,501.2 1698.7,505.5 1687.4,516.8 	"/>
	<polyline id="SvgjsPolyline1519" class="st3" points="920.8,890.9 951.2,860.5 961.8,871.1 931.4,901.5 	"/>
	<polyline id="SvgjsPolyline1520" class="st3" points="1258,1209.3 1263.7,1203.6 1275.7,1215.6 1270.1,1221.3 	"/>
	<polyline id="SvgjsPolyline1521" class="st3" points="1314.3,906.6 1320.6,900.2 1336.9,916.5 1330.5,922.8 	"/>
	<polyline id="SvgjsPolyline1522" class="st3" points="1219.6,1016.9 1234.4,1002 1239.4,1007 1224.5,1021.8 	"/>
	<polyline id="SvgjsPolyline1523" class="st3" points="1648.4,633.6 1656.2,625.8 1664.7,634.3 1656.9,642 	"/>
	<polyline id="SvgjsPolyline1524" class="st3" points="1706.8,671.6 1733,645.5 1738.6,651.1 1712.5,677.3 	"/>
	<polyline id="SvgjsPolyline1525" class="st3" points="1583,617.4 1593.6,606.7 1604.2,617.4 1593.6,628 	"/>
	<polyline id="SvgjsPolyline1526" class="st3" points="1431.3,951.3 1444.8,937.8 1456.1,949.2 1442.7,962.6 	"/>
	<polyline id="SvgjsPolyline1527" class="st3" points="1592.3,537.9 1613.5,516.7 1626.2,529.4 1605,550.6 	"/>
	<polyline id="SvgjsPolyline1528" class="st3" points="1418.9,491.8 1428.8,481.9 1432.3,485.4 1422.4,495.3 	"/>
	<polyline id="SvgjsPolyline1529" class="st3" points="1281.9,976.3 1300.3,957.9 1344.2,1001.7 1325.8,1020.1 	"/>
	<polyline id="SvgjsPolyline1530" class="st3" points="1269.7,470.2 1273.9,465.9 1282.4,474.4 1278.1,478.7 	"/>
	<polyline id="SvgjsPolyline1531" class="st3" points="1120.4,507.8 1143.7,484.4 1149.4,490.1 1126.1,513.4 	"/>
	<polyline id="SvgjsPolyline1532" class="st3" points="1229.2,1072 1233.4,1067.7 1244.7,1079 1240.5,1083.3 	"/>
	<polyline id="SvgjsPolyline1533" class="st3" points="1569.4,630.7 1573.6,626.4 1587.1,639.9 1582.8,644.1 	"/>
	<polyline id="SvgjsPolyline1534" class="st3" points="1303.4,197.3 1319,181.7 1321.8,184.5 1306.2,200.1 	"/>
	<polyline id="SvgjsPolyline1535" class="st3" points="1534.5,589.3 1540.2,583.6 1557.9,601.3 1552.2,607 	"/>
	<polyline id="SvgjsPolyline1536" class="st3" points="1424.2,251.6 1428.5,247.3 1459.6,278.4 1455.3,282.7 	"/>
	<polyline id="SvgjsPolyline1537" class="st3" points="1279.8,145.5 1308.1,117.3 1315.2,124.3 1286.9,152.6 	"/>
	<polyline id="SvgjsPolyline1538" class="st3" points="1186.1,615.4 1208.7,592.8 1211.5,595.6 1188.9,618.2 	"/>
	<polyline id="SvgjsPolyline1539" class="st3" points="1427.5,320.7 1438.1,310.1 1448.7,320.7 1438.1,331.3 	"/>
	<polyline id="SvgjsPolyline1540" class="st3" points="1281.9,622.3 1303.1,601.1 1311.6,609.5 1290.4,630.8 	"/>
	<polyline id="SvgjsPolyline1541" class="st3" points="1152.3,846.2 1169.3,829.2 1172.1,832 1155.1,849 	"/>
	<polyline id="SvgjsPolyline1542" class="st3" points="1163.4,717.1 1186,694.5 1188.9,697.3 1166.2,719.9 	"/>
	<polyline id="SvgjsPolyline1543" class="st3" points="1525.8,417.3 1532.2,411 1552.7,431.5 1546.3,437.8 	"/>
	<polyline id="SvgjsPolyline1544" class="st3" points="973,489.4 982.9,479.5 997.1,493.7 987.2,503.6 	"/>
	<polyline id="SvgjsPolyline1545" class="st3" points="967.4,905 975.1,897.2 985.8,907.8 978,915.6 	"/>
	<polyline id="SvgjsPolyline1546" class="st3" points="1191.9,1126.6 1200.4,1118.1 1213.8,1131.6 1205.3,1140 	"/>
	<polyline id="SvgjsPolyline1547" class="st3" points="1043.8,631 1046.7,628.2 1063.6,645.1 1060.8,648 	"/>
	<polyline id="SvgjsPolyline1548" class="st3" points="1388.8,287 1407.2,268.6 1416.4,277.8 1398,296.2 	"/>
	<polyline id="SvgjsPolyline1549" class="st3" points="1362,579.3 1385.3,556 1390.3,560.9 1366.9,584.2 	"/>
	<polyline id="SvgjsPolyline1550" class="st3" points="1272.1,520.1 1301.1,491.1 1306,496.1 1277,525.1 	"/>
	<polyline id="SvgjsPolyline1551" class="st3" points="982.6,549.6 1018,514.2 1023.6,519.9 988.3,555.2 	"/>
	<polyline id="SvgjsPolyline1552" class="st3" points="1785.8,710.4 1788.7,707.6 1811.3,730.2 1808.5,733 	"/>
	<polyline id="SvgjsPolyline1553" class="st3" points="1487.4,462.8 1490.3,460 1534.8,504.5 1532,507.4 	"/>
	<polyline id="SvgjsPolyline1554" class="st3" points="1059.9,323.2 1070.5,312.5 1080.4,322.4 1069.8,333.1 	"/>
	<polyline id="SvgjsPolyline1555" class="st3" points="1258.1,162.6 1268.7,152 1280,163.3 1269.4,173.9 	"/>
	<polyline id="SvgjsPolyline1556" class="st3" points="1226.3,1114.1 1236.2,1104.2 1246.1,1114.1 1236.2,1124 	"/>
	<polyline id="SvgjsPolyline1557" class="st3" points="998.3,900.9 1008.2,891 1023.7,906.5 1013.8,916.4 	"/>
	<polyline id="SvgjsPolyline1558" class="st3" points="989.6,401.7 1013.6,377.6 1023.5,387.5 999.5,411.6 	"/>
	<polyline id="SvgjsPolyline1559" class="st3" points="1517.5,1014.6 1532.4,999.7 1536.6,1004 1521.8,1018.8 	"/>
	<polyline id="SvgjsPolyline1560" class="st3" points="1432.4,641.7 1451.5,622.6 1463.5,634.6 1444.4,653.7 	"/>
	<polyline id="SvgjsPolyline1561" class="st3" points="1355.4,828.4 1365.3,818.5 1378.8,831.9 1368.9,841.8 	"/>
	<polyline id="SvgjsPolyline1562" class="st3" points="937.9,630 942.2,625.8 960.6,644.1 956.3,648.4 	"/>
	<polyline id="SvgjsPolyline1563" class="st3" points="1182.2,465.8 1190,458.1 1202,470.1 1194.2,477.9 	"/>
	<polyline id="SvgjsPolyline1564" class="st3" points="1180.5,338.3 1184,334.8 1203.8,354.6 1200.3,358.1 	"/>
	<polyline id="SvgjsPolyline1565" class="st3" points="1352,433.1 1358.4,426.7 1369,437.3 1362.6,443.7 	"/>
	<polyline id="SvgjsPolyline1566" class="st3" points="1252,378.7 1285.9,344.7 1295.1,353.9 1261.1,387.8 	"/>
	<polyline id="SvgjsPolyline1567" class="st3" points="1375.7,473.3 1414.6,434.4 1420.3,440 1381.4,478.9 	"/>
	<polyline id="SvgjsPolyline1568" class="st3" points="1399.3,951.4 1420.5,930.2 1424.7,934.4 1403.5,955.6 	"/>
	<polyline id="SvgjsPolyline1569" class="st3" points="1118.9,868.4 1129.5,857.8 1138,866.3 1127.4,876.9 	"/>
	<polyline id="SvgjsPolyline1570" class="st3" points="1822,684.7 1826.2,680.4 1855.2,709.4 1851,713.7 	"/>
	<polyline id="SvgjsPolyline1571" class="st3" points="1748.7,675.9 1757.9,666.7 1776.2,685.1 1767.1,694.3 	"/>
	<polyline id="SvgjsPolyline1572" class="st3" points="1269.3,244.4 1279.2,234.5 1294.1,249.4 1284.2,259.3 	"/>
	<polyline id="SvgjsPolyline1573" class="st3" points="1267,821.7 1280.5,808.3 1284,811.8 1270.6,825.2 	"/>
	<polyline id="SvgjsPolyline1574" class="st3" points="1390.1,206.5 1394.4,202.3 1406.4,214.3 1402.1,218.5 	"/>
	<polyline id="SvgjsPolyline1575" class="st3" points="1697.1,585.7 1712,570.9 1716.2,575.1 1701.3,589.9 	"/>
	<polyline id="SvgjsPolyline1576" class="st3" points="1151.4,917.2 1162.7,905.9 1173.3,916.5 1162,927.8 	"/>
	<polyline id="SvgjsPolyline1577" class="st3" points="1258.6,528 1297.5,489.1 1300.3,491.9 1261.4,530.8 	"/>
	<polyline id="SvgjsPolyline1578" class="st3" points="1379.8,899.8 1386.9,892.8 1395.4,901.3 1388.3,908.3 	"/>
	<polyline id="SvgjsPolyline1579" class="st3" points="835.5,686.1 848.9,672.7 854.6,678.3 841.1,691.8 	"/>
	<polyline id="SvgjsPolyline1580" class="st3" points="1017.1,645.5 1025.6,637 1033.4,644.7 1024.9,653.2 	"/>
	<polyline id="SvgjsPolyline1581" class="st3" points="1110.8,1027.1 1121.4,1016.5 1132,1027.1 1121.4,1037.7 	"/>
	<polyline id="SvgjsPolyline1582" class="st3" points="1208.9,1160.1 1211.7,1157.3 1229.4,1174.9 1226.6,1177.8 	"/>
	<polyline id="SvgjsPolyline1583" class="st3" points="1809.8,660.5 1812.6,657.7 1828.2,673.3 1825.4,676.1 	"/>
	<polyline id="SvgjsPolyline1584" class="st3" points="1333.9,277.8 1344.5,267.1 1351.6,274.2 1341,284.8 	"/>
	<polyline id="SvgjsPolyline1585" class="st3" points="923.1,725.6 942.2,706.5 962,726.3 942.9,745.4 	"/>
	<polyline id="SvgjsPolyline1586" class="st3" points="854.5,754.6 865.9,743.3 884.2,761.7 872.9,773 	"/>
	<polyline id="SvgjsPolyline1587" class="st3" points="1598.4,538.6 1611.8,525.2 1616.8,530.1 1603.3,543.6 	"/>
	<polyline id="SvgjsPolyline1588" class="st3" points="1009.6,772.6 1018.1,764.1 1023,769 1014.6,777.5 	"/>
	<polyline id="SvgjsPolyline1589" class="st3" points="1304.8,179.3 1335.9,148.2 1341.5,153.9 1310.4,185 	"/>
	<polyline id="SvgjsPolyline1590" class="st3" points="1423.8,784.6 1437.9,770.4 1440.7,773.3 1426.6,787.4 	"/>
	<polyline id="SvgjsPolyline1591" class="st3" points="1371.5,942.2 1374.3,939.4 1383.5,948.6 1380.7,951.4 	"/>
	<polyline id="SvgjsPolyline1592" class="st3" points="1358.2,717.4 1368.1,707.5 1376.6,716 1366.7,725.9 	"/>
	<polyline id="SvgjsPolyline1593" class="st3" points="1337.1,775.2 1340.7,771.6 1353.4,784.4 1349.9,787.9 	"/>
	<polyline id="SvgjsPolyline1594" class="st3" points="1731.9,605 1747.5,589.4 1755.2,597.2 1739.7,612.7 	"/>
	<polyline id="SvgjsPolyline1595" class="st3" points="1128.2,257.9 1143,243 1147.3,247.3 1132.4,262.1 	"/>
	<polyline id="SvgjsPolyline1596" class="st3" points="1096.5,521.5 1111.4,506.6 1119.8,515.1 1105,529.9 	"/>
	<polyline id="SvgjsPolyline1597" class="st3" points="1474.9,437.7 1505.4,407.3 1511,412.9 1480.6,443.4 	"/>
	<polyline id="SvgjsPolyline1598" class="st3" points="1592.8,667.3 1598.5,661.6 1626,689.2 1620.4,694.9 	"/>
	<polyline id="SvgjsPolyline1599" class="st3" points="1044,599.2 1055.3,587.9 1072.9,605.6 1061.6,616.9 	"/>
	<polyline id="SvgjsPolyline1600" class="st3" points="1628.7,502.7 1637.8,493.5 1643.5,499.2 1634.3,508.4 	"/>
	<polyline id="SvgjsPolyline1601" class="st3" points="1190.1,782.7 1192.9,779.9 1223.3,810.3 1220.5,813.1 	"/>
	<polyline id="SvgjsPolyline1602" class="st3" points="1772.3,611.8 1805.5,578.6 1813.3,586.3 1780,619.6 	"/>
	<polyline id="SvgjsPolyline1603" class="st3" points="1047.1,506.4 1053.5,500.1 1097.3,543.9 1090.9,550.3 	"/>
	<polyline id="SvgjsPolyline1604" class="st3" points="1329.7,337.9 1332.6,335.1 1343.2,345.7 1340.4,348.5 	"/>
	<polyline id="SvgjsPolyline1605" class="st3" points="802.4,644 810.9,635.5 816.5,641.2 808,649.7 	"/>
	<polyline id="SvgjsPolyline1606" class="st4" points="1444.7,753.1 1475.1,722.7 1490.7,738.2 1460.3,768.6 	"/>
	<polyline id="SvgjsPolyline1607" class="st4" points="1350.7,194.7 1369.1,176.3 1387.5,194.7 1369.1,213.1 	"/>
	<polyline id="SvgjsPolyline1608" class="st4" points="1140.9,1042.7 1150.8,1032.8 1191.8,1073.8 1181.9,1083.7 	"/>
	<polyline id="SvgjsPolyline1609" class="st4" points="1229,380.7 1236,373.7 1262.9,400.5 1255.8,407.6 	"/>
	<polyline id="SvgjsPolyline1610" class="st4" points="1024,593.2 1067.8,549.3 1072.1,553.6 1028.2,597.4 	"/>
	<polyline id="SvgjsPolyline1611" class="st4" points="1444.5,662.8 1455.8,651.5 1471.4,667 1460.1,678.3 	"/>
	<polyline id="SvgjsPolyline1612" class="st4" points="1364.5,905.6 1392.1,878 1409.7,895.7 1382.2,923.3 	"/>
	<polyline id="SvgjsPolyline1613" class="st4" points="1134.3,422.8 1170.4,386.8 1192.3,408.7 1156.2,444.8 	"/>
	<polyline id="SvgjsPolyline1614" class="st4" points="1288.9,154.7 1324.2,119.4 1337,132.1 1301.6,167.4 	"/>
	<polyline id="SvgjsPolyline1615" class="st4" points="1431.2,810.3 1465.1,776.3 1470,781.3 1436.1,815.2 	"/>
	<polyline id="SvgjsPolyline1616" class="st4" points="1327,1128.6 1341.1,1114.5 1366.6,1140 1352.4,1154.1 	"/>
	<polyline id="SvgjsPolyline1617" class="st4" points="1422.6,1053.1 1441.7,1034 1450.2,1042.4 1431.1,1061.5 	"/>
	<polyline id="SvgjsPolyline1618" class="st4" points="1424.4,557.9 1435.7,546.6 1462.5,573.5 1451.2,584.8 	"/>
	<polyline id="SvgjsPolyline1619" class="st4" points="1406.1,1086 1416.7,1075.4 1450,1108.6 1439.4,1119.2 	"/>
	<polyline id="SvgjsPolyline1620" class="st4" points="1823.3,633.4 1826.9,629.9 1855.9,658.9 1852.3,662.4 	"/>
	<polyline id="SvgjsPolyline1621" class="st4" points="1429.1,245.9 1435.4,239.5 1480,284.1 1473.6,290.4 	"/>
	<polyline id="SvgjsPolyline1622" class="st4" points="1373.6,265.9 1404.8,234.8 1422.4,252.5 1391.3,283.6 	"/>
	<polyline id="SvgjsPolyline1623" class="st4" points="1140.5,995.6 1156,980 1163.8,987.8 1148.2,1003.4 	"/>
	<polyline id="SvgjsPolyline1624" class="st4" points="1087.5,312.9 1097.4,303 1113.6,319.3 1103.7,329.2 	"/>
	<polyline id="SvgjsPolyline1625" class="st4" points="1235.6,1028.5 1255.4,1008.7 1268.8,1022.1 1249,1041.9 	"/>
	<polyline id="SvgjsPolyline1626" class="st4" points="1544.4,783.9 1548.6,779.6 1558.5,789.5 1554.3,793.8 	"/>
	<polyline id="SvgjsPolyline1627" class="st4" points="1127.6,319.9 1136.1,311.5 1158.7,334.1 1150.2,342.6 	"/>
	<polyline id="SvgjsPolyline1628" class="st4" points="798.7,599.6 811.5,586.9 850.4,625.8 837.6,638.5 	"/>
	<polyline id="SvgjsPolyline1629" class="st4" points="1390.2,799.2 1419.2,770.2 1425.5,776.6 1396.5,805.5 	"/>
	<polyline id="SvgjsPolyline1630" class="st4" points="922.1,461 936.3,446.9 956.1,466.7 941.9,480.8 	"/>
	<polyline id="SvgjsPolyline1631" class="st4" points="1075.5,316.1 1095.3,296.3 1138.4,339.4 1118.6,359.2 	"/>
	<polyline id="SvgjsPolyline1632" class="st4" points="1339.1,857.1 1343.3,852.8 1352.5,862 1348.3,866.3 	"/>
	<polyline id="SvgjsPolyline1633" class="st4" points="1055.4,908.1 1074.5,889 1085.1,899.6 1066,918.7 	"/>
	<polyline id="SvgjsPolyline1634" class="st4" points="1779.2,644.4 1799,624.7 1821.6,647.3 1801.8,667.1 	"/>
	<polyline id="SvgjsPolyline1635" class="st4" points="1385,343.9 1395.6,333.3 1416.1,353.8 1405.5,364.4 	"/>
	<polyline id="SvgjsPolyline1636" class="st4" points="1258.5,121.2 1299.5,80.2 1315.8,96.4 1274.8,137.4 	"/>
	<polyline id="SvgjsPolyline1637" class="st4" points="897.5,727.2 901.7,722.9 943.4,764.6 939.2,768.9 	"/>
	<polyline id="SvgjsPolyline1638" class="st4" points="1424.2,527.6 1429.1,522.6 1449.6,543.1 1444.7,548.1 	"/>
	<polyline id="SvgjsPolyline1639" class="st4" points="1276.8,401.8 1316.4,362.2 1322.1,367.9 1282.5,407.5 	"/>
	<polyline id="SvgjsPolyline1640" class="st4" points="1361.1,774.5 1395,740.6 1409.2,754.7 1375.2,788.7 	"/>
	<polyline id="SvgjsPolyline1641" class="st4" points="766.1,632.7 789.5,609.3 810.7,630.6 787.3,653.9 	"/>
	<polyline id="SvgjsPolyline1642" class="st4" points="1528.4,689.2 1554.5,663 1563,671.5 1536.9,697.7 	"/>
	<polyline id="SvgjsPolyline1643" class="st4" points="1457,986.2 1475.4,967.8 1481.8,974.1 1463.4,992.5 	"/>
	<polyline id="SvgjsPolyline1644" class="st4" points="1563.3,445.6 1582.4,426.5 1588.1,432.2 1569,451.2 	"/>
	<polyline id="SvgjsPolyline1645" class="st4" points="1639,490.3 1674.4,454.9 1682.9,463.4 1647.5,498.7 	"/>
	<polyline id="SvgjsPolyline1646" class="st4" points="1220.7,1109.2 1236.3,1093.6 1254,1111.3 1238.4,1126.8 	"/>
	<polyline id="SvgjsPolyline1647" class="st4" points="1175.5,826.1 1196,805.6 1213.6,823.3 1193.1,843.8 	"/>
	<polyline id="SvgjsPolyline1648" class="st4" points="1108.8,897.7 1151.2,855.3 1171.7,875.8 1129.3,918.2 	"/>
	<polyline id="SvgjsPolyline1649" class="st4" points="983.4,749.2 996.8,735.7 1006,744.9 992.6,758.4 	"/>
	<polyline id="SvgjsPolyline1650" class="st4" points="1454.2,1005.1 1459.2,1000.1 1486.8,1027.7 1481.8,1032.7 	"/>
	<polyline id="SvgjsPolyline1651" class="st4" points="883,676.1 903.5,655.6 919.7,671.9 899.2,692.4 	"/>
	<polyline id="SvgjsPolyline1652" class="st4" points="1396.5,950 1419.8,926.7 1429.7,936.6 1406.4,959.9 	"/>
	<polyline id="SvgjsPolyline1653" class="st4" points="817.1,582.5 827,572.6 869.4,615.1 859.5,625 	"/>
	<polyline id="SvgjsPolyline1654" class="st4" points="1585.1,637 1597.1,625 1614.1,642 1602.1,654 	"/>
	<polyline id="SvgjsPolyline1655" class="st4" points="1234,1205.4 1262.3,1177.1 1270.1,1184.9 1241.8,1213.1 	"/>
	<polyline id="SvgjsPolyline1656" class="st4" points="1424.7,962.2 1432.5,954.4 1444.5,966.5 1436.7,974.2 	"/>
	<polyline id="SvgjsPolyline1657" class="st4" points="1546.5,562.5 1551.4,557.6 1574,580.2 1569.1,585.2 	"/>
	<polyline id="SvgjsPolyline1658" class="st4" points="1306.2,955.6 1312.5,949.2 1350.7,987.4 1344.4,993.8 	"/>
	<polyline id="SvgjsPolyline1659" class="st4" points="1260.4,1117.4 1296.5,1081.4 1307.8,1092.7 1271.7,1128.8 	"/>
	<polyline id="SvgjsPolyline1660" class="st4" points="1176.4,713.5 1191.9,698 1195.5,701.5 1179.9,717.1 	"/>
	<polyline id="SvgjsPolyline1661" class="st4" points="1553.8,388.4 1568.6,373.6 1603.3,408.2 1588.4,423.1 	"/>
	<polyline id="SvgjsPolyline1662" class="st4" points="1050.8,416.7 1085.4,382 1096,392.6 1061.4,427.3 	"/>
	<polyline id="SvgjsPolyline1663" class="st4" points="1198.2,239.9 1215.2,222.9 1235,242.7 1218,259.7 	"/>
	<polyline id="SvgjsPolyline1664" class="st4" points="1220.7,339.3 1226.3,333.6 1253.2,360.5 1247.6,366.2 	"/>
	<polyline id="SvgjsPolyline1665" class="st4" points="1503.2,386.9 1523,367.1 1535,379.2 1515.2,399 	"/>
	<polyline id="SvgjsPolyline1666" class="st4" points="1503.4,689.6 1511.9,681.1 1526.7,695.9 1518.2,704.4 	"/>
	<polyline id="SvgjsPolyline1667" class="st4" points="1244.6,309.2 1275,278.8 1281.4,285.1 1251,315.5 	"/>
	<polyline id="SvgjsPolyline1668" class="st4" points="1150.4,272.6 1178,245 1182.2,249.3 1154.7,276.8 	"/>
	<polyline id="SvgjsPolyline1669" class="st4" points="1409.8,302.8 1429.6,283 1440.9,294.3 1421.1,314.1 	"/>
	<polyline id="SvgjsPolyline1670" class="st4" points="878.4,721.1 882.7,716.9 925.8,760 921.6,764.3 	"/>
	<polyline id="SvgjsPolyline1671" class="st4" points="974.4,741.5 989.3,726.6 1007,744.3 992.1,759.1 	"/>
	<polyline id="SvgjsPolyline1672" class="st4" points="1361.5,890.3 1384.2,867.7 1387.7,871.2 1365.1,893.8 	"/>
	<polyline id="SvgjsPolyline1673" class="st4" points="1454.6,862.2 1466.6,850.2 1491.3,875 1479.3,887 	"/>
	<polyline id="SvgjsPolyline1674" class="st4" points="1619.8,701.3 1634,687.1 1646.7,699.9 1632.5,714 	"/>
	<polyline id="SvgjsPolyline1675" class="st4" points="1541.3,831.9 1573.8,799.3 1585.8,811.3 1553.3,843.9 	"/>
	<polyline id="SvgjsPolyline1676" class="st4" points="900.4,546.9 918,529.2 935.7,546.9 918,564.6 	"/>
	<polyline id="SvgjsPolyline1677" class="st4" points="1539.7,749.6 1559.5,729.8 1576.5,746.8 1556.7,766.6 	"/>
	<polyline id="SvgjsPolyline1678" class="st4" points="1405.1,599.9 1416.4,588.6 1435.5,607.7 1424.2,619 	"/>
	<polyline id="SvgjsPolyline1679" class="st4" points="1044.8,673.3 1048.4,669.8 1071.7,693.1 1068.2,696.6 	"/>
	<polyline id="SvgjsPolyline1680" class="st4" points="1292.2,721.8 1333.2,680.8 1347.4,694.9 1306.3,735.9 	"/>
	<polyline id="SvgjsPolyline1681" class="st4" points="1521.3,793.5 1537.6,777.2 1551.7,791.3 1535.4,807.6 	"/>
	<polyline id="SvgjsPolyline1682" class="st4" points="1690.4,768.8 1705.2,754 1718.6,767.4 1703.8,782.3 	"/>
	<polyline id="SvgjsPolyline1683" class="st4" points="1706.8,822.5 1750.6,778.7 1754.1,782.2 1710.3,826 	"/>
	<polyline id="SvgjsPolyline1684" class="st4" points="1631.8,826.1 1645.2,812.7 1653,820.5 1639.5,833.9 	"/>
	<polyline id="SvgjsPolyline1685" class="st4" points="1199.4,264 1208.6,254.8 1220.6,266.8 1211.4,276 	"/>
	<polyline id="SvgjsPolyline1686" class="st4" points="1006.3,947.7 1016.2,937.8 1029.6,951.2 1019.7,961.1 	"/>
	<polyline id="SvgjsPolyline1687" class="st4" points="1222.9,981.7 1231.4,973.2 1256.8,998.7 1248.3,1007.1 	"/>
	<polyline id="SvgjsPolyline1688" class="st4" points="1494.4,931.5 1520.5,905.3 1525.5,910.3 1499.3,936.4 	"/>
	<polyline id="SvgjsPolyline1689" class="st4" points="1169.2,769.3 1172.7,765.7 1215.1,808.2 1211.6,811.7 	"/>
	<polyline id="SvgjsPolyline1690" class="st4" points="1541.6,641.2 1582.6,600.2 1591.1,608.7 1550.1,649.7 	"/>
	<polyline id="SvgjsPolyline1691" class="st4" points="1210,764.9 1224.1,750.8 1244.6,771.3 1230.5,785.4 	"/>
	<polyline id="SvgjsPolyline1692" class="st4" points="1176.2,514.7 1191.1,499.8 1195.3,504 1180.5,518.9 	"/>
	<polyline id="SvgjsPolyline1693" class="st4" points="1072,455.3 1108.8,418.5 1113.7,423.4 1076.9,460.2 	"/>
	<polyline id="SvgjsPolyline1694" class="st4" points="1340.7,534 1350.6,524.1 1359.8,533.3 1349.9,543.2 	"/>
	<polyline id="SvgjsPolyline1695" class="st4" points="1402.5,869.9 1406.7,865.7 1427.3,886.2 1423,890.4 	"/>
	<polyline id="SvgjsPolyline1696" class="st4" points="1114.4,903.1 1125,892.5 1139.1,906.6 1128.5,917.2 	"/>
	<polyline id="SvgjsPolyline1697" class="st4" points="1501.6,779.8 1516.5,764.9 1532.7,781.2 1517.9,796 	"/>
	<polyline id="SvgjsPolyline1698" class="st4" points="1252.7,452.9 1256.3,449.4 1269.7,462.8 1266.2,466.3 	"/>
	<polyline id="SvgjsPolyline1699" class="st4" points="1035.7,997.1 1055.5,977.3 1067.5,989.3 1047.7,1009.1 	"/>
	<polyline id="SvgjsPolyline1700" class="st4" points="1296.7,1172.9 1312.2,1157.3 1320.7,1165.8 1305.2,1181.4 	"/>
	<polyline id="SvgjsPolyline1701" class="st4" points="1187.1,515.8 1208.3,494.6 1218.2,504.5 1197,525.7 	"/>
	<polyline id="SvgjsPolyline1702" class="st4" points="1285.9,791.4 1294.4,782.9 1304.3,792.8 1295.8,801.3 	"/>
	<polyline id="SvgjsPolyline1703" class="st4" points="1130.2,695.1 1169.1,656.2 1172.6,659.8 1133.7,698.6 	"/>
	<polyline id="SvgjsPolyline1704" class="st4" points="1379.9,1060.1 1389.1,1050.9 1401.8,1063.6 1392.6,1072.8 	"/>
	<polyline id="SvgjsPolyline1705" class="st4" points="928.5,499.8 966.7,461.7 975.2,470.1 937,508.3 	"/>
	<polyline id="SvgjsPolyline1706" class="st4" points="1032.1,395.2 1035.7,391.7 1045.6,401.6 1042,405.1 	"/>
	<polyline id="SvgjsPolyline1707" class="st4" points="890.3,518.6 900.2,508.7 912.2,520.8 902.3,530.7 	"/>
	<polyline id="SvgjsPolyline1708" class="st4" points="1506.7,474.4 1513,468 1544.8,499.8 1538.5,506.2 	"/>
	<polyline id="SvgjsPolyline1709" class="st4" points="1335.6,242.2 1345.5,232.3 1354.7,241.5 1344.8,251.4 	"/>
	<polyline id="SvgjsPolyline1710" class="st4" points="1025.8,871.6 1028.6,868.8 1054,894.2 1051.2,897.1 	"/>
	<polyline id="SvgjsPolyline1711" class="st4" points="1298.9,279.2 1303.1,275 1318,289.8 1313.7,294.1 	"/>
	<polyline id="SvgjsPolyline1712" class="st4" points="1165.2,575.8 1187.9,553.2 1197.1,562.4 1174.4,585 	"/>
	<polyline id="SvgjsPolyline1713" class="st4" points="1386.1,943.9 1419.3,910.6 1437.7,929 1404.5,962.3 	"/>
	<polyline id="SvgjsPolyline1714" class="st4" points="1593.6,781.7 1602.1,773.2 1612,783.1 1603.5,791.6 	"/>
	<polyline id="SvgjsPolyline1715" class="st4" points="1198.7,155.4 1206.4,147.6 1241.8,183 1234,190.8 	"/>
	<polyline id="SvgjsPolyline1716" class="st4" points="1141.6,739.6 1144.5,736.8 1162.1,754.4 1159.3,757.3 	"/>
	<polyline id="SvgjsPolyline1717" class="st4" points="1297.6,514 1322.3,489.3 1329.4,496.4 1304.6,521.1 	"/>
	<polyline id="SvgjsPolyline1718" class="st4" points="1336.5,291.6 1340.1,288.1 1381.1,329.1 1377.5,332.6 	"/>
	<polyline id="SvgjsPolyline1719" class="st4" points="1251,657.4 1272.9,635.5 1279.9,642.6 1258,664.5 	"/>
	<polyline id="SvgjsPolyline1720" class="st4" points="1385.1,268 1403.5,249.6 1412,258.1 1393.6,276.5 	"/>
	<polyline id="SvgjsPolyline1721" class="st4" points="1184.2,824.9 1197.7,811.5 1207.6,821.4 1194.1,834.8 	"/>
	<polyline id="SvgjsPolyline1722" class="st4" points="1240.9,1071.6 1247.9,1064.5 1256.4,1073 1249.3,1080.1 	"/>
	<polyline id="SvgjsPolyline1723" class="st4" points="1509.4,715.6 1520,705 1524.3,709.3 1513.7,719.9 	"/>
	<polyline id="SvgjsPolyline1724" class="st4" points="1581.5,916.5 1595.7,902.4 1598.5,905.2 1584.4,919.4 	"/>
	<polyline id="SvgjsPolyline1725" class="st4" points="1297.7,410 1300.6,407.2 1327.4,434 1324.6,436.9 	"/>
	<polyline id="SvgjsPolyline1726" class="st4" points="959.4,602.3 978.5,583.2 1018.8,623.5 999.8,642.6 	"/>
	<polyline id="SvgjsPolyline1727" class="st4" points="1640.1,881.2 1650,871.3 1662.7,884 1652.8,893.9 	"/>
	<polyline id="SvgjsPolyline1728" class="st4" points="1587.9,428.6 1624,392.5 1630.3,398.9 1594.3,434.9 	"/>
	<polyline id="SvgjsPolyline1729" class="st4" points="1154.8,282.3 1163.3,273.8 1176,286.6 1167.6,295 	"/>
	<polyline id="SvgjsPolyline1730" class="st4" points="1566.3,642.6 1572,637 1596.7,661.7 1591.1,667.4 	"/>
	<polyline id="SvgjsPolyline1731" class="st4" points="1584.7,527.7 1597.5,515 1605.9,523.5 1593.2,536.2 	"/>
	<polyline id="SvgjsPolyline1732" class="st4" points="1040.7,817.2 1076.8,781.1 1079.6,783.9 1043.5,820 	"/>
	<polyline id="SvgjsPolyline1733" class="st4" points="1023.5,669.5 1043.3,649.7 1046.1,652.5 1026.3,672.3 	"/>
	<polyline id="SvgjsPolyline1734" class="st4" points="893.8,521.5 897.3,517.9 905.8,526.4 902.3,529.9 	"/>
	<polyline id="SvgjsPolyline1735" class="st4" points="1407.8,977.4 1420.5,964.6 1426.9,971 1414.2,983.7 	"/>
	<polyline id="SvgjsPolyline1736" class="st4" points="1607,878.3 1619,866.3 1627.5,874.8 1615.5,886.8 	"/>
	<polyline id="SvgjsPolyline1737" class="st4" points="1712.5,524.3 1720.3,516.5 1732.3,528.6 1724.6,536.3 	"/>
	<polyline id="SvgjsPolyline1738" class="st4" points="1517.4,978.4 1521.6,974.2 1557,1009.5 1552.7,1013.8 	"/>
	<polyline id="SvgjsPolyline1739" class="st4" points="1154.4,1025 1162.9,1016.5 1171.4,1025 1162.9,1033.5 	"/>
	<polyline id="SvgjsPolyline1740" class="st4" points="1359.4,423.9 1368.6,414.7 1378.5,424.6 1369.3,433.8 	"/>
	<polyline id="SvgjsPolyline1741" class="st4" points="1209.7,611.2 1243,578 1247.2,582.2 1214,615.5 	"/>
	<polyline id="SvgjsPolyline1742" class="st4" points="980.6,670.1 994.7,656 1024.4,685.7 1010.3,699.8 	"/>
	<polyline id="SvgjsPolyline1743" class="st4" points="1390.8,431.9 1405.7,417 1408.5,419.8 1393.7,434.7 	"/>
	<polyline id="SvgjsPolyline1744" class="st4" points="1060.4,416.9 1075.3,402.1 1080.2,407 1065.4,421.9 	"/>
	<polyline id="SvgjsPolyline1745" class="st4" points="1219,646.8 1237.4,628.4 1240.2,631.2 1221.8,649.6 	"/>
	<polyline id="SvgjsPolyline1746" class="st4" points="1326,390.1 1338,378.1 1355,395 1342.9,407.1 	"/>
	<polyline id="SvgjsPolyline1747" class="st4" points="845.4,572.9 850.3,567.9 863.8,581.4 858.8,586.3 	"/>
	<polyline id="SvgjsPolyline1748" class="st4" points="1110.5,267.7 1119,259.2 1162.9,303.1 1154.4,311.5 	"/>
	<polyline id="SvgjsPolyline1749" class="st4" points="1181.5,930 1191.4,920.1 1201.3,930 1191.4,939.9 	"/>
	<polyline id="SvgjsPolyline1750" class="st4" points="1399,655.7 1441.5,613.3 1446.4,618.2 1404,660.7 	"/>
	<polyline id="SvgjsPolyline1751" class="st4" points="1413.7,1104.4 1417.2,1100.9 1432.1,1115.7 1428.5,1119.3 	"/>
	<polyline id="SvgjsPolyline1752" class="st4" points="1351.2,1163.8 1363.3,1151.8 1366.1,1154.6 1354.1,1166.7 	"/>
	<polyline id="SvgjsPolyline1753" class="st4" points="1573.9,450.7 1578.1,446.5 1588,456.4 1583.8,460.6 	"/>
	<polyline id="SvgjsPolyline1754" class="st4" points="1066.8,564.8 1073.8,557.7 1097.2,581.1 1090.1,588.1 	"/>
	<polyline id="SvgjsPolyline1755" class="st4" points="1426.7,766 1437.3,755.4 1443.7,761.7 1433.1,772.4 	"/>
	<polyline id="SvgjsPolyline1756" class="st4" points="1404.4,821.2 1434.8,790.8 1440.5,796.5 1410.1,826.9 	"/>
	<polyline id="SvgjsPolyline1757" class="st4" points="1310.9,642.8 1319.4,634.3 1334.3,649.2 1325.8,657.7 	"/>
	<polyline id="SvgjsPolyline1758" class="st4" points="1345.4,685.7 1361.6,669.4 1370.1,677.9 1353.9,694.2 	"/>
	<polyline id="SvgjsPolyline1759" class="st4" points="1033.7,679.7 1036.5,676.8 1047.8,688.1 1045,691 	"/>
	<polyline id="SvgjsPolyline1760" class="st4" points="1484.4,625 1507.7,601.7 1511.3,605.2 1487.9,628.5 	"/>
	<polyline id="SvgjsPolyline1761" class="st4" points="1552.4,394.4 1556,390.8 1570.1,405 1566.6,408.5 	"/>
	<polyline id="SvgjsPolyline1762" class="st4" points="1111.7,445.6 1134.4,422.9 1156.3,444.8 1133.6,467.5 	"/>
	<polyline id="SvgjsPolyline1763" class="st4" points="1647.4,673 1658,662.4 1672.2,676.6 1661.6,687.2 	"/>
	<polyline id="SvgjsPolyline1764" class="st4" points="1169.7,1027.8 1185.3,1012.3 1206.5,1033.5 1190.9,1049 	"/>
	<polyline id="SvgjsPolyline1765" class="st4" points="1581.8,717.5 1584.6,714.7 1596.6,726.7 1593.8,729.5 	"/>
	<polyline id="SvgjsPolyline1766" class="st4" points="1187,437 1189.8,434.2 1200.4,444.8 1197.6,447.7 	"/>
	<polyline id="SvgjsPolyline1767" class="st4" points="1364.5,253.3 1373,244.8 1383.6,255.4 1375.1,263.9 	"/>
	<polyline id="SvgjsPolyline1768" class="st4" points="1034.2,710.7 1038.4,706.5 1047.6,715.7 1043.4,719.9 	"/>
	<polyline id="SvgjsPolyline1769" class="st4" points="1376.5,441.2 1385.7,432 1391.3,437.6 1382.1,446.8 	"/>
	<polyline id="SvgjsPolyline1770" class="st4" points="1546,745.7 1558.8,733 1570.1,744.3 1557.3,757 	"/>
	<polyline id="SvgjsPolyline1771" class="st4" points="1237.1,968.3 1244.2,961.3 1254.1,971.2 1247,978.2 	"/>
	<polyline id="SvgjsPolyline1772" class="st4" points="1635,747.1 1673.2,708.9 1679.6,715.3 1641.4,753.5 	"/>
	<polyline id="SvgjsPolyline1773" class="st4" points="1121.6,1060.6 1131.5,1050.7 1137.2,1056.4 1127.3,1066.3 	"/>
	<polyline id="SvgjsPolyline1774" class="st4" points="1276.6,999.9 1280.2,996.3 1299.3,1015.4 1295.7,1019 	"/>
	<polyline id="SvgjsPolyline1775" class="st4" points="1686.7,660.8 1697.3,650.2 1701.5,654.4 1690.9,665 	"/>
	<polyline id="SvgjsPolyline1776" class="st4" points="1637.4,609.4 1657.2,589.6 1665.7,598.1 1645.9,617.9 	"/>
	<polyline id="SvgjsPolyline1777" class="st4" points="1410.7,465.9 1429.8,446.8 1434.7,451.7 1415.6,470.8 	"/>
	<polyline id="SvgjsPolyline1778" class="st4" points="1212.2,340.7 1223.5,329.4 1256.8,362.6 1245.4,373.9 	"/>
	<polyline id="SvgjsPolyline1779" class="st4" points="1369.8,779.5 1398.8,750.5 1401.6,753.4 1372.6,782.3 	"/>
	<polyline id="SvgjsPolyline1780" class="st4" points="1149.6,242 1152.5,239.1 1163.8,250.4 1160.9,253.3 	"/>
	<polyline id="SvgjsPolyline1781" class="st4" points="939.6,905 959.4,885.2 972.9,898.7 953.1,918.5 	"/>
	<polyline id="SvgjsPolyline1782" class="st4" points="954.2,709.7 962.7,701.2 974,712.5 965.5,721 	"/>
	<polyline id="SvgjsPolyline1783" class="st4" points="934.9,575.2 939.8,570.3 949.7,580.2 944.8,585.1 	"/>
	<polyline id="SvgjsPolyline1784" class="st4" points="1291.9,451 1303.2,439.7 1307.4,443.9 1296.1,455.2 	"/>
	<polyline id="SvgjsPolyline1785" class="st4" points="1121.3,448.4 1138.3,431.4 1152.4,445.6 1135.4,462.5 	"/>
	<polyline id="SvgjsPolyline1786" class="st4" points="1278.7,718.1 1309.9,686.9 1314.8,691.9 1283.7,723 	"/>
	<polyline id="SvgjsPolyline1787" class="st4" points="971,891.3 976.7,885.6 1019.1,928 1013.4,933.7 	"/>
	<polyline id="SvgjsPolyline1788" class="st4" points="915.5,779.6 921.8,773.3 931,782.5 924.7,788.8 	"/>
	<polyline id="SvgjsPolyline1789" class="st4" points="1116.7,389.7 1125.2,381.2 1136.5,392.6 1128,401 	"/>
	<polyline id="SvgjsPolyline1790" class="st4" points="913.7,866.1 930,849.8 940.6,860.4 924.3,876.7 	"/>
	<polyline id="SvgjsPolyline1791" class="st4" points="1126,981.3 1144.4,962.9 1155,973.5 1136.6,991.9 	"/>
	<polyline id="SvgjsPolyline1792" class="st4" points="1288.7,237 1300.1,225.7 1309.2,234.9 1297.9,246.2 	"/>
	<polyline id="SvgjsPolyline1793" class="st4" points="1365.9,803.3 1402,767.2 1410.5,775.7 1374.4,811.8 	"/>
	<polyline id="SvgjsPolyline1794" class="st4" points="1551.2,824.3 1567.5,808 1571.7,812.2 1555.5,828.5 	"/>
	<polyline id="SvgjsPolyline1795" class="st4" points="1682.7,741.9 1695.5,729.2 1703.2,737 1690.5,749.7 	"/>
	<polyline id="SvgjsPolyline1796" class="st4" points="1245.5,900.5 1261.8,884.3 1269.6,892 1253.3,908.3 	"/>
	<polyline id="SvgjsPolyline1797" class="st4" points="1123.1,948.6 1128.7,942.9 1140.7,954.9 1135.1,960.6 	"/>
	<polyline id="SvgjsPolyline1798" class="st4" points="1348.8,258.3 1358.7,248.4 1370.8,260.4 1360.9,270.3 	"/>
	<polyline id="SvgjsPolyline1799" class="st4" points="1613.7,673.4 1626.4,660.7 1638.5,672.7 1625.7,685.4 	"/>
	<polyline id="SvgjsPolyline1800" class="st4" points="950.3,793.1 965.9,777.6 968.7,780.4 953.1,795.9 	"/>
	<polyline id="SvgjsPolyline1801" class="st4" points="915,798.8 918.6,795.3 939.8,816.5 936.2,820 	"/>
	<polyline id="SvgjsPolyline1802" class="st4" points="1303.1,318.2 1312.3,309 1322.9,319.6 1313.7,328.8 	"/>
	<polyline id="SvgjsPolyline1803" class="st4" points="1374.2,1010 1383.4,1000.8 1391.9,1009.3 1382.7,1018.5 	"/>
	<polyline id="SvgjsPolyline1804" class="st4" points="1661,540.2 1663.9,537.3 1684.4,557.8 1681.5,560.7 	"/>
	<polyline id="SvgjsPolyline1805" class="st4" points="1103.7,460.5 1110.8,453.5 1119.2,461.9 1112.2,469 	"/>
	<polyline id="SvgjsPolyline1806" class="st4" points="1488.4,948.3 1494.7,941.9 1507.5,954.7 1501.1,961 	"/>
	<polyline id="SvgjsPolyline1807" class="st4" points="994.5,559.3 1019.2,534.6 1026.3,541.7 1001.6,566.4 	"/>
	<polyline id="SvgjsPolyline1808" class="st4" points="845.6,590.5 850.5,585.5 871.7,606.7 866.8,611.7 	"/>
	<polyline id="SvgjsPolyline1809" class="st4" points="1018.2,492.1 1029.5,480.8 1040.8,492.1 1029.5,503.4 	"/>
	<polyline id="SvgjsPolyline1810" class="st4" points="1291.2,1135.8 1312.5,1114.5 1318.1,1120.2 1296.9,1141.4 	"/>
	<polyline id="SvgjsPolyline1811" class="st4" points="1378.5,403.9 1393.4,389.1 1402.6,398.3 1387.7,413.1 	"/>
	<polyline id="SvgjsPolyline1812" class="st4" points="1049,369.1 1058.9,359.2 1071.6,371.9 1061.7,381.8 	"/>
	<polyline id="SvgjsPolyline1813" class="st4" points="1788.9,731.8 1792.5,728.3 1805.9,741.7 1802.4,745.2 	"/>
	<polyline id="SvgjsPolyline1814" class="st4" points="1421.9,833 1444.5,810.4 1454.4,820.3 1431.8,842.9 	"/>
	<polyline id="SvgjsPolyline1815" class="st4" points="1139.8,705.7 1182.2,663.3 1185.8,666.8 1143.3,709.2 	"/>
	<polyline id="SvgjsPolyline1816" class="st4" points="1611.2,771.7 1631.7,751.2 1641.6,761.1 1621.1,781.6 	"/>
	<polyline id="SvgjsPolyline1817" class="st4" points="1408.9,717.1 1418.1,708 1422.3,712.2 1413.1,721.4 	"/>
	<polyline id="SvgjsPolyline1818" class="st4" points="1175.3,957 1200.7,931.5 1206.4,937.2 1180.9,962.6 	"/>
	<polyline id="SvgjsPolyline1819" class="st4" points="943.8,450.6 956.5,437.9 969.9,451.3 957.2,464.1 	"/>
	<polyline id="SvgjsPolyline1820" class="st4" points="1445.6,743.5 1473.2,715.9 1477.4,720.1 1449.9,747.7 	"/>
	<polyline id="SvgjsPolyline1821" class="st4" points="1213.9,571.1 1217.4,567.6 1228,578.2 1224.5,581.7 	"/>
	<polyline id="SvgjsPolyline1822" class="st4" points="1077.9,441 1089.3,429.6 1092.8,433.2 1081.5,444.5 	"/>
	<polyline id="SvgjsPolyline1823" class="st4" points="1279.6,106.2 1294.4,91.4 1302.2,99.2 1287.4,114 	"/>
	<polyline id="SvgjsPolyline1824" class="st4" points="1208.1,393.8 1217.3,384.6 1227.2,394.5 1218,403.7 	"/>
	<polyline id="SvgjsPolyline1825" class="st4" points="1358.6,198.1 1367.8,188.9 1375.6,196.6 1366.4,205.8 	"/>
	<polyline id="SvgjsPolyline1826" class="st4" points="1327.4,788.9 1330.9,785.4 1353.6,808 1350,811.5 	"/>
	<polyline id="SvgjsPolyline1827" class="st4" points="1215.1,299.8 1233.5,281.4 1243.4,291.3 1225,309.7 	"/>
	<polyline id="SvgjsPolyline1828" class="st4" points="1283.9,330.9 1298,316.7 1303.6,322.4 1289.5,336.5 	"/>
	<polyline id="SvgjsPolyline1829" class="st4" points="1308.4,765.2 1312.6,760.9 1321.1,769.4 1316.8,773.6 	"/>
	<polyline id="SvgjsPolyline1830" class="st4" points="1324.5,695.3 1330.1,689.6 1340,699.5 1334.4,705.2 	"/>
	<polyline id="SvgjsPolyline1831" class="st4" points="1368.7,348.4 1373.7,343.4 1389.9,359.7 1385,364.6 	"/>
	<polyline id="SvgjsPolyline1832" class="st4" points="1229.1,789.9 1253.2,765.8 1256,768.7 1231.9,792.7 	"/>
	<polyline id="SvgjsPolyline1833" class="st4" points="1353.5,918.1 1357.8,913.8 1383.2,939.3 1379,943.5 	"/>
	<polyline id="SvgjsPolyline1834" class="st4" points="1248.1,1101.1 1267.2,1082 1272.9,1087.7 1253.8,1106.8 	"/>
	<polyline id="SvgjsPolyline1835" class="st4" points="899.7,701.1 911,689.8 919.5,698.2 908.2,709.6 	"/>
	<polyline id="SvgjsPolyline1836" class="st4" points="1353.8,1178.1 1366.5,1165.3 1370,1168.9 1357.3,1181.6 	"/>
	<polyline id="SvgjsPolyline1837" class="st4" points="1485.5,712.2 1489.8,707.9 1513.1,731.3 1508.9,735.5 	"/>
	<polyline id="SvgjsPolyline1838" class="st4" points="1165.6,849.9 1175.5,840 1190.4,854.9 1180.5,864.8 	"/>
	<polyline id="SvgjsPolyline1839" class="st4" points="1242.6,790.3 1268.7,764.2 1273,768.4 1246.8,794.6 	"/>
	<polyline id="SvgjsPolyline1840" class="st4" points="1008.7,609.4 1015,603 1052.5,640.5 1046.2,646.9 	"/>
	<polyline id="SvgjsPolyline1841" class="st4" points="1449.6,680.7 1452.4,677.9 1464.4,689.9 1461.6,692.7 	"/>
	<polyline id="SvgjsPolyline1842" class="st4" points="1565.9,392 1570.2,387.8 1591.4,409 1587.1,413.2 	"/>
	<polyline id="SvgjsPolyline1843" class="st4" points="1006.6,514.1 1015.8,504.9 1020,509.2 1010.8,518.4 	"/>
	<polyline id="SvgjsPolyline1844" class="st4" points="1213.5,905.5 1229.8,889.2 1235.4,894.9 1219.2,911.2 	"/>
	<polyline id="SvgjsPolyline1845" class="st4" points="1209.4,1153.9 1220,1143.3 1224.2,1147.6 1213.6,1158.2 	"/>
	<polyline id="SvgjsPolyline1846" class="st4" points="1109.2,583.8 1119.8,573.2 1150.9,604.3 1140.3,614.9 	"/>
	<polyline id="SvgjsPolyline1847" class="st4" points="1533.9,930.1 1542.4,921.6 1549.5,928.6 1541,937.1 	"/>
	<polyline id="SvgjsPolyline1848" class="st4" points="1307.1,347.4 1321.3,333.2 1334.7,346.6 1320.6,360.8 	"/>
	<polyline id="SvgjsPolyline1849" class="st4" points="1074.4,815.8 1077.9,812.2 1112.6,846.9 1109,850.4 	"/>
	<polyline id="SvgjsPolyline1850" class="st4" points="1512.5,933.2 1529.4,916.2 1533,919.7 1516,936.7 	"/>
	<polyline id="SvgjsPolyline1851" class="st4" points="1254.5,1055.9 1263,1047.4 1277.9,1062.2 1269.4,1070.7 	"/>
	<polyline id="SvgjsPolyline1852" class="st4" points="1397.6,674.9 1429.4,643 1432.2,645.9 1400.4,677.7 	"/>
	<polyline id="SvgjsPolyline1853" class="st4" points="1137.6,425.8 1170.8,392.6 1181.4,403.2 1148.2,436.4 	"/>
	<polyline id="SvgjsPolyline1854" class="st4" points="1269,1117.5 1282.4,1104.1 1285.2,1106.9 1271.8,1120.4 	"/>
	<polyline id="SvgjsPolyline1855" class="st4" points="1043,865.3 1046.5,861.7 1055,870.2 1051.4,873.8 	"/>
	<polyline id="SvgjsPolyline1856" class="st4" points="1568.3,603.2 1585.2,586.2 1590.9,591.9 1573.9,608.8 	"/>
</g>
</svg>
