<?xml version="1.0" standalone="no"?>
<!DOCTYPE svg PUBLIC "-//W3C//DTD SVG 20010904//EN"
 "http://www.w3.org/TR/2001/REC-SVG-20010904/DTD/svg10.dtd">
<svg version="1.0" xmlns="http://www.w3.org/2000/svg"
 width="700.000000pt" height="700.000000pt" viewBox="0 0 700.000000 700.000000"
 preserveAspectRatio="xMidYMid meet">
<metadata>
Created by potrace 1.14, written by Peter Selinger 2001-2017
</metadata>
<g transform="translate(0.000000,700.000000) scale(0.100000,-0.100000)"
fill="#000000" stroke="none">
<path d="M3399 6526 c-2 -2 -83 -6 -179 -10 -96 -3 -186 -8 -200 -10 -14 -2
-52 -8 -85 -12 -33 -4 -62 -8 -65 -9 -3 0 -27 -4 -55 -9 -76 -11 -289 -64
-395 -98 -1045 -333 -1840 -1232 -2039 -2303 -26 -141 -31 -177 -46 -340 -6
-66 -7 -386 0 -450 4 -49 13 -126 20 -175 2 -14 6 -47 10 -74 21 -170 98 -445
185 -661 189 -474 543 -939 946 -1245 32 -25 61 -47 64 -50 13 -13 135 -94
220 -145 95 -58 203 -114 335 -175 210 -98 550 -197 770 -226 28 -3 59 -8 70
-10 126 -25 640 -25 770 0 11 2 41 6 66 10 225 33 508 113 728 207 62 27 117
49 121 49 5 0 7 -68 7 -151 -1 -91 2 -154 8 -158 6 -4 462 -7 1015 -7 l1005 1
1 3013 0 3012 -1013 0 c-803 0 -1013 -3 -1014 -12 0 -7 0 -70 -1 -139 l0 -125
-122 52 c-158 68 -306 117 -481 161 -140 35 -367 69 -530 79 -55 3 -103 8
-106 10 -3 2 -8 2 -10 0z m164 -1790 c173 -33 316 -91 466 -191 203 -134 359
-322 454 -546 85 -199 116 -405 94 -619 -57 -547 -468 -991 -1012 -1095 -540
-102 -1093 174 -1343 670 -138 276 -167 615 -77 915 141 470 558 820 1049 879
93 11 273 5 369 -13z"/>
</g>
</svg>
